<mxfile host="app.diagrams.net" modified="2022-07-07T13:10:07.784Z" agent="5.0 (Macintosh; Intel Mac OS X 10_15_7) AppleWebKit/537.36 (KHTML, like Gecko) Chrome/103.0.0.0 Safari/537.36" etag="xrQZSNt21uzas7HYP3Yl" version="20.0.4" type="github">
  <diagram id="3FoYa13-KBL38VeBXBWS" name="Page-1">
    <mxGraphModel dx="1426" dy="691" grid="1" gridSize="10" guides="1" tooltips="1" connect="1" arrows="1" fold="1" page="1" pageScale="1" pageWidth="827" pageHeight="1169" math="0" shadow="0">
      <root>
        <mxCell id="0" />
        <mxCell id="1" parent="0" />
        <mxCell id="50bPCj3TIs-8iO-mDuQu-15" value="" style="edgeStyle=orthogonalEdgeStyle;rounded=0;orthogonalLoop=1;jettySize=auto;html=1;" parent="1" source="50bPCj3TIs-8iO-mDuQu-14" edge="1">
          <mxGeometry relative="1" as="geometry">
            <mxPoint x="170" y="410" as="targetPoint" />
          </mxGeometry>
        </mxCell>
        <mxCell id="50bPCj3TIs-8iO-mDuQu-14" value="&lt;b&gt;zplus_search_similar_prerank_traindata_1 (知+搜索相似度预排序训练数据生成_1)&lt;/b&gt;" style="rounded=1;whiteSpace=wrap;html=1;" parent="1" vertex="1">
          <mxGeometry x="30" y="280" width="280" height="30" as="geometry" />
        </mxCell>
        <mxCell id="50bPCj3TIs-8iO-mDuQu-22" value="&lt;p style=&quot;box-sizing: border-box; line-height: inherit; orphans: 4; margin: 0.8em 0px; position: relative; caret-color: rgb(51, 51, 51); color: rgb(51, 51, 51); font-family: &amp;quot;Open Sans&amp;quot;, &amp;quot;Clear Sans&amp;quot;, &amp;quot;Helvetica Neue&amp;quot;, Helvetica, Arial, &amp;quot;Segoe UI Emoji&amp;quot;, sans-serif; text-align: start; background-color: rgb(255, 255, 255);&quot; class=&quot;md-end-block md-p&quot;&gt;&lt;span style=&quot;box-sizing: border-box;&quot; class=&quot;md-plain&quot;&gt;&lt;font style=&quot;font-size: 12px;&quot;&gt;datahub_vectors.answer_content_bert_64d&lt;/font&gt;&lt;/span&gt;&lt;/p&gt;&lt;p style=&quot;box-sizing: border-box; line-height: inherit; orphans: 4; margin: 0.8em 0px; position: relative; caret-color: rgb(51, 51, 51); color: rgb(51, 51, 51); font-family: &amp;quot;Open Sans&amp;quot;, &amp;quot;Clear Sans&amp;quot;, &amp;quot;Helvetica Neue&amp;quot;, Helvetica, Arial, &amp;quot;Segoe UI Emoji&amp;quot;, sans-serif; text-align: start; background-color: rgb(255, 255, 255);&quot; class=&quot;md-end-block md-p&quot;&gt;&lt;span style=&quot;box-sizing: border-box;&quot; class=&quot;md-plain&quot;&gt;&lt;font style=&quot;font-size: 12px;&quot;&gt;datahub_vectors.article_content_bert_64d&lt;/font&gt;&lt;/span&gt;&lt;/p&gt;&lt;p style=&quot;box-sizing: border-box; line-height: inherit; orphans: 4; margin: 0.8em 0px; position: relative; caret-color: rgb(51, 51, 51); color: rgb(51, 51, 51); font-family: &amp;quot;Open Sans&amp;quot;, &amp;quot;Clear Sans&amp;quot;, &amp;quot;Helvetica Neue&amp;quot;, Helvetica, Arial, &amp;quot;Segoe UI Emoji&amp;quot;, sans-serif; text-align: start; background-color: rgb(255, 255, 255);&quot; class=&quot;md-end-block md-p&quot;&gt;&lt;span style=&quot;box-sizing: border-box;&quot; class=&quot;md-plain&quot;&gt;&lt;font style=&quot;font-size: 12px;&quot;&gt;datahub_vectors.article_title_bert_128d&lt;/font&gt;&lt;/span&gt;&lt;/p&gt;&lt;p style=&quot;box-sizing: border-box; line-height: inherit; orphans: 4; margin: 0.8em 0px; position: relative; caret-color: rgb(51, 51, 51); color: rgb(51, 51, 51); font-family: &amp;quot;Open Sans&amp;quot;, &amp;quot;Clear Sans&amp;quot;, &amp;quot;Helvetica Neue&amp;quot;, Helvetica, Arial, &amp;quot;Segoe UI Emoji&amp;quot;, sans-serif; text-align: start; background-color: rgb(255, 255, 255);&quot; class=&quot;md-end-block md-p&quot;&gt;&lt;span style=&quot;box-sizing: border-box;&quot; class=&quot;md-plain&quot;&gt;&lt;font style=&quot;font-size: 12px;&quot;&gt;datahub_vectors.question_title_bert_128d&lt;/font&gt;&lt;/span&gt;&lt;/p&gt;" style="text;html=1;align=center;verticalAlign=middle;resizable=0;points=[];autosize=1;strokeColor=none;fillColor=none;" parent="1" vertex="1">
          <mxGeometry x="360" y="370" width="260" height="120" as="geometry" />
        </mxCell>
        <mxCell id="50bPCj3TIs-8iO-mDuQu-23" value="&lt;span style=&quot;font-size: 11px; background-color: rgb(255, 255, 255);&quot;&gt;zhihu_adctr.search_zplus_query_emb_pre_daily&lt;/span&gt;" style="text;html=1;align=center;verticalAlign=middle;resizable=0;points=[];autosize=1;strokeColor=none;fillColor=none;" parent="1" vertex="1">
          <mxGeometry x="35" y="420" width="280" height="30" as="geometry" />
        </mxCell>
        <mxCell id="50bPCj3TIs-8iO-mDuQu-25" style="edgeStyle=orthogonalEdgeStyle;rounded=0;orthogonalLoop=1;jettySize=auto;html=1;fontSize=12;" parent="1" source="50bPCj3TIs-8iO-mDuQu-24" edge="1">
          <mxGeometry relative="1" as="geometry">
            <mxPoint x="330" y="550" as="targetPoint" />
          </mxGeometry>
        </mxCell>
        <mxCell id="50bPCj3TIs-8iO-mDuQu-26" value="&lt;b&gt;zplus_search_similar_prerank_traindata_2 (知+搜索相似度预排序训练数据生成_2)&lt;/b&gt;" style="edgeLabel;html=1;align=center;verticalAlign=middle;resizable=0;points=[];fontSize=12;" parent="50bPCj3TIs-8iO-mDuQu-25" vertex="1" connectable="0">
          <mxGeometry x="-0.08" y="-3" relative="1" as="geometry">
            <mxPoint as="offset" />
          </mxGeometry>
        </mxCell>
        <mxCell id="50bPCj3TIs-8iO-mDuQu-24" value="+" style="text;html=1;align=center;verticalAlign=middle;resizable=0;points=[];autosize=1;strokeColor=none;fillColor=none;fontSize=12;" parent="1" vertex="1">
          <mxGeometry x="315" y="420" width="30" height="30" as="geometry" />
        </mxCell>
        <mxCell id="50bPCj3TIs-8iO-mDuQu-37" value="&lt;b&gt;&lt;u&gt;sign_parser&lt;/u&gt;&lt;/b&gt;" style="edgeStyle=orthogonalEdgeStyle;rounded=0;orthogonalLoop=1;jettySize=auto;html=1;fontSize=12;" parent="1" source="50bPCj3TIs-8iO-mDuQu-27" edge="1">
          <mxGeometry relative="1" as="geometry">
            <mxPoint x="330" y="660" as="targetPoint" />
          </mxGeometry>
        </mxCell>
        <mxCell id="50bPCj3TIs-8iO-mDuQu-27" value="zhihu_adctr.search_zplus_emb_pre_daily" style="text;html=1;align=center;verticalAlign=middle;resizable=0;points=[];autosize=1;strokeColor=none;fillColor=none;fontSize=12;" parent="1" vertex="1">
          <mxGeometry x="210" y="560" width="240" height="30" as="geometry" />
        </mxCell>
        <mxCell id="50bPCj3TIs-8iO-mDuQu-34" style="edgeStyle=orthogonalEdgeStyle;rounded=0;orthogonalLoop=1;jettySize=auto;html=1;fontSize=12;" parent="1" source="50bPCj3TIs-8iO-mDuQu-29" edge="1">
          <mxGeometry relative="1" as="geometry">
            <mxPoint x="184.3699999999999" y="270" as="targetPoint" />
          </mxGeometry>
        </mxCell>
        <mxCell id="50bPCj3TIs-8iO-mDuQu-29" value="" style="shape=image;verticalLabelPosition=bottom;labelBackgroundColor=default;verticalAlign=top;aspect=fixed;imageAspect=0;image=data:image/png,iVBORw0KGgoAAAANSUhEUgAAAXsAAADNCAYAAABZ2tDXAAABQmlDQ1BJQ0MgUHJvZmlsZQAAKJFjYGASSCwoyGFhYGDIzSspCnJ3UoiIjFJgf8bAzsDCIMBgzmCWmFxc4BgQ4ANUwgCjUcG3awyMIPqyLsisGCFD48LtM2+ya/Ic6ohVjsJUjwK4UlKLk4H0HyBOSS4oKmFgYEwAspXLSwpA7BYgW6QI6CggewaInQ5hrwGxkyDsA2A1IUHOQPYVIFsgOSMxBch+AmTrJCGJpyOxofaC3RDg4aNgZGIcbE7AsaSCktSKEhDtnF9QWZSZnlGi4AgMoVQFz7xkPR0FIwMjIwYGUHhDVH++AQ5HRjEOhFhuGwODhRyQsQYhlrqZgWFrAzQooGLKcxgYhJIYGPZJFSQWJcIdwPiNpTjN2AjC5t7OwMA67f//z+EMDOyaDAx/r////3v7//9/lzEwMN9iYDjwDQA3s1yeGlqsfgAAADhlWElmTU0AKgAAAAgAAYdpAAQAAAABAAAAGgAAAAAAAqACAAQAAAABAAABe6ADAAQAAAABAAAAzQAAAABPxR3VAABAAElEQVR4AexdCZyN1f9+7r1jZ4ZQkTWyljRU1mRf0kIp2mwJf0sSyi6KUNoQhZQooxDGmrUk+5Z9zZayjp25y/953jtn5s64s1h+Fd7v53Pnfd/znvV7znnO9zzfc+84fBTYckUaOHHiBFKlSoWMGTNa6S5evIhTp07B6XTC4XDA4/Egc+bMVhypV/EVHhYWZsVR2OnTp+F2u62wY8eOISQkJLYOCpdkyJAB6dKls9J4vV4onfI+f/489KwylK/Co6KirHiqlz6B+cVmbN/YGrA1cMtqIA5hblkVpLzhAtVLly5ZgJspU6bYhGnSpEFoaKgF+C6XywJigb/ipE6d2gJegbQWA4kAWuHKS/daNJRO7/XR4nHu3DkL7BVf5WpB0FWf9OnTW3krrURXAb8ttgZsDdgaSEwDNtgnppkE4QJmWeMGcM+cOWOBtCxoAbmeBcL6yOoW2Ct+1qxZkTZtWpw8edKy5I3FHR0dbYG0wF1pAsUAv/LRe4F5lixZYuMbkA9MY9/bGrA1YGsgKQ3YYJ+UdgLeiRoRDWNEtMnZs2etMIG9PqJcBMQCa1n7eq/FQVa8Pkoj4FdcUTWBuwOTr65Kq0+gmEUiMMy+tzVga8DWQEo1YIN9CjUlEA8EXIGxrH2BuRHRLwJ1WeTm3ljhonnEtcuiVz56DszP5GFfbQ3YGrA18L/QgA32V6FVgbmAXmAtMJfVL6teVI7eGV7dOHBVhOgYOVxtsTVga8DWwL+hAQeBKc40/TdqcIOUKUtdVrmhYAT0omEE4kb0TmJ4dhNuX20N2BqwNfBva8C27FPYA+LYBeYCcoG8rHlD0ZgsxNXbYmvA1oCtgf+iBmzL/r/YK3adbA3YGrA1cJ01EMdBXGXGOg/er9+A2NSnTp2O9xz7IuBGfHe79h0DQsCjiqfRsWOXeGF68Lg9WLVqtRXeq3dfi0pZu2695ezct28/hg0dcVkaE9C9e2/rVjz6oUN/Bv0cOXLURLevtgZsDdgauGk1cM1gP37CRGzfviNWQaGhmTBl6o/Ys2dvbJi5EeBO/XE6pk6djnnzfvLf81lug2HDR2Du3J/QrHlL67N16zYrmSvEhR49+uDw4b8wa+YcHD9+Al06d7XolOXLV2LNunUm+8uuP0yeYoUdP34cZcs+gsaNm8f7NGz4Eho1eumydP/LgNGrvVh24OZ3k/Se58HRs/9LTf638v7rjA9vz/f7bILVbOdxH96c7YE3ka4/cMqHdxYmnl55Lt3vw9i13mDZ22G2BpLVwDVz9l+NHYfXX2+HJk1axBbmoyXdqlVb5MiRwworVKggunV7E8ePHceqlavh9rgtC133kuhL0Zg9ay4iIsZj//4D6Nv3XeTKdZf1LirqFF566QWsozWvdCtXrMILLzTChQsXsWnzZmzmp/krray4+nLSp58M4YJwHEeOHoPX48U2LkQZ0qdjXe7kAjPTimf+7Nq5Gy1btTGP/8h14Xb/bC+by//t15QWOnWLF+eigedLXPP6nNIirynezNU+vBjuQ7YMV9bOayo0JvH11JXAuf00DwbUdiFT6sRrd+ICMHOVD72rBo9ziu8PHAfczC91EJX8fQaYtc6HHpWDp1fopsM+/LzLhyYPJB7HfmNrIDENXBPYR0T8gKPHjqJu3TrInSu3VcZ3EyNQ8oGSWL9+A/r17WOFhYb5f1rg3vuKI8vceYims9PpcPJboZmRPXt2jBv3DXLlvgujx3yFxYuXIGfOHPjyy3Fo1641NmzYiEUMW0ErXr8xM+6bCQgNC0X+/PmwaeMmtGjRHEUKF0br1u0wdOhHVnlzuEOY8sNUnDt/Dj1J5bTv0NaicB6tXN16745m+U79rIEHmXje/UaQDX/6IMB4vsSNUNt/t47XU1dampcShC9p6CQB9sm1ODynA+Oftx34yenJfv+/08BVg/2BQ4fQs1cfpHKFWN/2fOjh0tbvuSxstQjTI6ei8cvNULRYEZ5cyWjx66YJX339DXr26AbRM3ny5MHQYZ+he/e38PnIL1C//pPW5y9SNiNGfGGBfcWK5RF1MgohPOmyatUanohxo8R996Fo0SL4bfkKPN2gPkqXDseFixeguJJGDZ+1PkWKlkDEpAk4evSotYAsWjjPev9ah06oUL4cGjBtMFHZdevW5u4iV7DX8cIEBn1IWfy8zcd2AiUKODCkrgsZYoBh5AovIlZ6cYaURp3S+tGyeMnjPew+4cNbM7zYTwsue1YHmpRxoH4xJ7rP9WDeWv0uDlBxuxvfv+LC7RkdSZa7YLcXHy304c8jPhTN50D5ux3YfcyHgbRQJRM2eDF+uRfHTwJF8jrwPuucNf6vNsSr299nfeg5x4vf9/j4/QK25QEH3nzEn1c0mYW3SFH8tsXHfgU6VE/Z7mMtF7CB873Yc9AHrvtoU8mJx4v408pSfjPSY5XHjRmq3xdX3gjq9G/SJkdOAyu5U8pHIG1bwYkKbEcwXd1BXSXV3sqfuvE66zx0oRfnLwJVWVa3yi4cYZsbjvZTK0+OdKPqvQ68XT1pwI7cRr2zTec4FsoVdeA96ttFS37j3+zbaV5Esu8kB0/7+3rbPvb1bUDDB1Oms8BOWXOI+lvgxV7q747sDjQv58CTMfq7xD6R/pZzXPLgGNpWc2LsMh+GPu1E/ixBthaBGdv3N6UGrnyExaih0xtv4ZXmzeIp5eNPhqHiIxWRK2dOPPhgaawmOA8fNpIcvJ9mUWRRLY89Vgtp+Q1UAaqRrFmzIW++vJg48XuEh8ftU8fTkv9i9BgMHNjfijp27Ch4aJF/910E7iE9FDljFumcLfwNGs6YICIaaP+Bg4jib9X07z/Q+mzcuBHTp0fGPss5bOT06TMY8N4gzJ+/yAQleZ2zk2B1DBjfxIVJLV04TPD8dJkfIGZt92IMAaRHHRdmtSUKEqy37U0c7btFelEqD/Br5xD0qeWfnKcIPr2ruFArnIBd3IE5bUIsoE+q3P1RPnSd5MUTJR2Y1yEE9Uo4rHqcIABJFhKwPyNI9H3MhdntmR83N60mJc0Xj17lRU4Cstrx8XMuTCZw/PKHvy3vkKveRD55TGMXvqEepqz3wU3KKSkRx91mvAcV72GbXgtBawJ9nx+82M4FSdLsWw/SUGWTW7nwYQMX5mzw4dPf/Hz1aeokkpRJjcIOzKQ+itwJDPrJ/y6YrpJrL4cGfvzdh69e8pc1f6MPi/awvZkciGzNSlC+beZCdy4ASUn0JWASdwFjXnBZuthAnRgenptJnGS/GGk10YtQLmLT2rjQj/3w5S/++pv3yV0PU39tJ3hQpZBff60qOND/Ry9WEPgl8pns+AsY29SFceyT6WzTnzQi3FdWTHLVsN/fQBq4arBvSfqkRYumsU2dOXM2htFKL1eujBVWsUJ59OjZB7PnzsVnwz+OjXeaM0uW89mz5/DZZ5/HhuvGTe7+MJ24gVKjZg1MivgWO3bswHPPNbC+hdrhtbbIyB3D6FEj6QjeY1n8hQoVDkyGjRs24SJ5/erV62DL5q38Vcgwy4cgP0K6dOmRmaak7vVxOuMsHe1Etm7ZQEfui/HyS+yhVkEnvm7oQg5aj7IgHyEAbT3sjx1JS7fugw5Uzu/AbbSae1d1IX0SX6JNRSw5GAUcPwdo2z+tuQuh/Imc1MQbboSsT3paaaptUuUu2O1DrjsceKWUE5nTAvW4O3ioSFwbp2704ilakipD+ffiYrKLwHSS1nRi0rWSy1p0FL9INgcK5nZgA8FDsojt7ELLuDDD84Q50K8Oh1UyoDKfdcx+mwNtHvbXURbpVy387T1Eq/cPgtb7BME7qdP7bqflXsWJOQRkI/nvcli7AOm1fVkXDtDKPUa9BdNVStr7ahmn1YelmW9Z9uE8WsTSmNmhpU/FXyr1476pwmVXH9v8bm0nclMH0sUbtKYXbY6rs0mgxfggdfcBd1Nqn/qhCXcmVyILqb87uPtr+ZBff3UKOVGRO5IZm/2K/0V9wvILMY76pD/7xJf0en4lxdtxb0ANJDN8E29R5SqVrF9yVAxx5B3f6GJx5yZFBYL9kaNdeMJmRrxfdezSpROWr1hpAax+EbJL544mifV7MiGpiWYBIg7/k0+G07lL85k/TTBt2gzr7YQJYy2apVr1qhg9+st4+XTiaZ21a9fSkPbRBzAPkZGzUKpUKTRt+rKVdh39CUnROPrpg5TKXk7cIYu9WMvJJ+GmAwUIGJJ9rHJZUiiBkpOTLzHpU9OJwYu8qPmRGzkIcM24LRdQB5Okyt1LOihnlvip8hBYd5DSkezladPlpBumkl4ykoE/zb+H6R7IEbx+S7gj+YKW9W6CsGgB0RRlSQ2JLjh1AihEcDOSj+DiTGZk7TzqQ56sJoX/ei/bLPmJFFQof3NOlr2Rgqz/30fj6ps1YNEU4NMFhLPRPmS1INqk8l9T0t4cfreSlSA7AXhvzA4jfk5JP7lI3d0VGqcH6eQkdeNJgPdb2Xa5itIGtC9Qf0mX4n+7g3nkTqC//Bxbv3Ecqk/O0Gi4O2Czm4v1Sq5PUlKuHefG1UBwJLnC9ogS+XrsGBQrXiw2ZRidqOHh4Rj8/oexYbpp2LABtm3bZv0i5Oo1a1GtWpXY94uX/ILSpcJjn3VTv/5TPEv/MXLQabt69TLrPowO35ykiiQNnqmPAwcOoHbtmtaz/vR/ty/m/zTb+oVJAfeBg4dQsGAB1K7zJB4Ifxi/Ll2GQYM+QPHiJaGz+9cig0nTpCP4zSWd8DMpk2fKxqk0B2mPAwFbd5Xz98kEMz+g8AIEtBH1XVjaJQSvlHfg3ak8TcRJHUySKrcAJ/0fXGgCZVcM0CtMC8Fz5Z1WfVVn80kM6L2sQi+eSHmCluPPHUOwiNSPLHtJajY3A4HrD4KLEVEMXv//XzFBl13zs61/kvIKlNOkQS4yXQFyyqdJrQSCpKzh2xIsYIFpk7q/0vYGy0v+kuTEw/prd2FkH4E+E3Ujzj5QxJnz16/jtW8fF9orkbzM43CAzpX2EHV0F3WkPgnldUtAn+/i0c/k+uRKyrfj3ngaiEOma6j70E8/hBy0gaKz80M+GIiJ5NZFqUj05aYOdI52aN8e2bJlw71cHGrWqouM/IGwMmUewvx581G5yqPWF6lq1aphpdHPE0R8/4P1o2Pz5y9E6/9rh3fe6Wuds1cZA94bjDCaSd99N8mKrz+pE+wOFsxfYJUlD+eUyRFYuXKp9enWtUtsmsCbgVwIdu/eExiU6P1BTugwbgQE+AK5mevirM9KdNZOW+mDHK+ayqN4xl6WnhE5Pd9b7LEATu8bT/RgMS1oWbSV8juRhvnKUSmRQ3YXOVhZbZKkyq3Gco9ycg9cQt6WFqrKXbczDkyqkuedSg5eTkKJOO1G5M9N3lZgwB8BsMDpdh6jFOO1nN8T2B7D1ytaOMv7mDsSgfUFxn2HDkokM7IeJbUlR7SOSUoETFU/dGPjXz7LgSgXTP9FHsj5K3ppxM8+lGe9UyIJdXWl7Q0sQ0CdlruINYdjFB/4MuE92/z2T/7+lK/lU+74Hix4eZ21qGvn0p/n6tU+jYMxv6Yg/4DyKnFX9QepK/mFJJuov/nrfagWo6Ma9NMMpEP9V9JzcuT2mOW1dj8BWdi3t5gGAjaS195ygbnOrnfu0o1W+GosmD8H3bq+yaOPr+OnubMsDl9O2KrVHuVJHuDVV5uj+L3FLJ5/7Zp1OMF/8JGelnjjJs15HPPL2Ap1fasTT+z0toA+U8ZM1pn7Yjzp071HH57O8eK3337BCy82RpEihfnlqYetdFoIdN5fX8bavWcvKj9aCR988JF17v4MnbCSAwn8AwqTg3bUF2N4Uig37r47v4KSlDcqO/Hm9x5MX+VGOvLjlYoRlP/2J3n+fie28hRGo8/9ZOn9dEaWJB9sZMsR4Ac6Op8r4Qc4OVK7TaFjkgsHf3fNcsqWiTmP/wRPdsygk7LCIDemtXUhqXLFA3/KY36f/uzFqxs8KEVgqM+TPTtjviz8THEndnERaDDSYy1ComV61HVaFqGpW+BVC1nTqk68QYcgf8EZue9kO9gWIwNqudCCOqj8gZu/5Q+8WNGJtenjFhcTL/AqXvvdBk4MIAgN4CkVyUuPOCHOXDKa9W9Dh22FFW6xd3iYPofujzLzFEhCXV1pexMW8Ww5J3pP8WLhfTQuaiZehwykgopRN1U+duMiFz6dgnqnxuXx1cLhdHJ3oM7KsX08q4DG5OzHXoGTVlRZv2eceI/668O6pWK/NKWTu9rd/lW2G3XFf5CJvrPYZ1yx3mD/ddpvk/YJ+/ZWer6m38bRf1+qUL4yft+01tJZ6dJlkTdvXjz9dD089dTjsVx9k6avYvCg/jjFkzF3F8hvHcUsV64SQXulle711zsTkPdg/Ddjrf/+9MsvS9Gp01uYNWsaJk/5ESNHjEI9HstsycXhDM8wvjfwfeTPl886kz958kTrN+R1vLJevefw7cRx2EurvP+AwSwvisc322AN+fuB771LqucJq07pdJaPcojHR+Vb6Ps2V54A0aIV+GuWAa8SvdX2PbGji7LezvN0ipybCUUUiazlQJGDNot46MDAmHtZ39qmGwlWrqxKOU91FNFIy8ke7g6AfgHgIziOotUsJ65EjtHltAQTSp7MDpSiE1HtOEsQM/ETxtO7VKxboCNTR0BVRkKpeQ//QxcXEYks96TyTMt4srCvVBLqKmF7ryQ/pdUOx1jSgWnTEWjlMDci+klxTftMeLCr2h5G/ZvmJdcHwfKIYn+HJRhb6v/MHOZyzkp0yqnhCA8WdeL/UkgQN1iedtjNp4FrAvvo6GgsIc9etWplSzP65xzBnJuysgN/IVJgqp86MFb4Zh6dLFiwYDz6RRb5nXfeYX0bNiOt+YTUjH4z5xzL0+kZI/rSlf59n35Xfueu3ShKS1//ZESLkv5H69JflyH8gZKxdRTXr8VDO4KbSQQ01Ye5UYS8epl8PDVDp6rOW4940YX7aXkmJvIPTN5ERE8gxXiyx5zfTvAq2UdRSEdIbyWU1g+7EgX4hHH/K8+iqD5cerl1nCkNTwvxNM/1kOvVB9L72CVePMPTTurxmTyBdQ/7fuiTl+80rke97Tz++xq4JrD/7zfv1q2hLMav+Tsqf5C7z0Vn3hOkQcQV23LraECnmpbw5xV0tj6cdODTpO/sEXDr9H/Cltpgn1Aj9rOtAVsDtgZuQg1cn73nTagYu0m2BmwN2Bq4mTRgg/3N1Jt2W2wN2BqwNZCIBmywT0QxdrCtAVsDtgZuJg3YYH8z9abdFlsDtgZsDSSiARvsE1GMHWxrwNaArYGbSQM22N9MvWm3xdaArQFbA4lowAb7RBRjB9sasDVga+Bm0oAN9jdTb9ptsTVga8DWQCIasME+EcXYwbYGbA3YGriZNGCD/c3Um3ZbbA3YGrA1kIgGbLBPRDF2sK0BWwO2Bm4mDdhgfzP1pt0WWwO2BmwNJKIBG+wTUYwdbGvA1oCtgZtJAzbY30y9abfF1oCtAVsDiWjABvtEFGMH2xqwNWBr4GbSgA32N1Nv2m2xNWBrwNZAIhqwwT4RxdjBtgZsDdgauJk0YIP9zdSbdltsDdgasDWQiAZssE9EMXawrQFbA7YGbiYNXDPYnzt3Dv36DYjVyalTp+M9x74IuLl06RLate8YEAIoXceOXeKF6cHj9mDVqtVWeK/efREdHY2169bj/Pnz2LdvP4YNHXFZGhPQvXtv69br9eLQoT+Dfo4cOWqi21dbA7YGbA3ctBq4ZrAfP2Eitm/fEaug0NBMmDL1R+zZszc2zNwIcKf+OB1Tp07HvHk/+e/57PP5MGz4CMyd+xOaNW9pfbZu3WYlc4W40KNHHxw+/BdmzZyD48dPoEvnrnA6nVi+fCXWrFtnsr/s+sPkKVbY8ePHUbbsI2jcuHm8T8OGL6FRo5cuS/e/DBi92otlB3z/yyL+E3n3nufB0bP/iar8I5X464wPb8/3/CNl2YXYGrgaDYRcTaLANF+NHYfXX2+HJk1axAb7aEm3atUWOXLksMIKFSqIbt3exPFjx7Fq5Wq4PW7LQte9JPpSNGbPmouIiPHYv/8A+vZ9F7ly3WW9i4o6hZdeegHraM0r3coVq/DCC41w4cJFbNq8GZv5af5KKytu+vTp8eknQ7ggHMeRo8fg9XixjQtRhvTpWJc7ucDMtOKZP7t27kbLVm3M4z9yXbjdD/RlczmuqLypW7w4Fw08X+Ka1+crKvdqI89c7cOL4T5ky3Bl7bza8gLTXU9dedld7ad5MKC2C5lSB5YS//7EBWDmKh96V40fbj/ZGvivaOCawD4i4gccPXYUdevWQe5cua02fTcxAiUfKIn16zegX98+VlhoWCbreu99xZFl7jxEu91wOpzIkiUzsmfPjnHjvkGu3Hdh9JivsHjxEuTMmQNffjkO7dq1xoYNG7GIYStoxZ84cQLjvpmA0LBQ5M+fD5s2bkKLFs1RpHBhtG7dDkOHfmSVM4c7hCk/TMW58+fQk1RO+w5tLQrn0crVrffuaJbvdMHr9SBTaKgV9l//s+FPH04RUJ4v8V+v6b9fv+upKy3NS9f5cElDJwmw//dbbdfA1kDSGrhqsD9w6BB69uqDVK4QpEmTBg89XBri7xe2WoTpkVPR+OVmKFqsCDJlymjx66YaX339DXr26AbRM3ny5MHQYZ+he/e38PnIL1C//pPW5y9SNiNGfGGBfcWK5RF1MgohLhe5+zXw0Lovcd99KFq0CH5bvgJPN6iP0qXDceHiBSiupFHDZ61PkaIlEDFpAo4ePWotIIsWzrPev9ahEyqUL4cGTBtMVHbdurW5u8gV7HW8MIFBH1IWP2/zsZ1AiQIODKnrQoYYYBi5wouIlV6cIaVRp7SDlFW85PEedp/w4a0ZXuw/7EP2rA40KeNA/WJOdJ/rwby1Pittxe1ufP+KC7dndCRZ7oLdXny00Ic/j/hQNJ8D5e92YPcxHwbSQpVM2ODF+OVeHD8JFMnrwPusc9b08aoT7+Hvsz70nOPF73t8COGoqfOAA28+4s8r2gu8NduD37b42K9Ah+op232s5QI2cL4Xew76wHUfbSo58XgRf1pZym9GeqzyuDFD9fviyhtBnf5N2uTIaWAld0r5cjrQtoITFdiOYLq6g7pKqr2VP3XjddZ56EIvzl8EqrKsbpVdOMI2Nxztp2aeHOlG1XsdeLu6v83xlBPkIan6K3py/RMkSzvI1sA1aSBlszJIEZ3eeAuvNG8W783HnwxDxUcqIlfOnHjwwdJYTXAePmwkOXg/zaLIoloee6wW0nKBEKAayZo1G/Lmy4uJE79HePgDJhjjacl/MXoMBg7sb4WNHTsKHlrk330XgXtID0XOmEU6ZwuyZr0tNk3gjWig/QcOIurUKfTvP9D6bNy4EdOnR8Y+yzls5PTpMxjw3iDMn7/IBCV5nbOTYHUMGN/EhUktXThM8Px0mR8gZm33YgwBpEcdF2a1JQoS6LftTRztu0V6USoP8GvnEPSp5cTYZbTmCT69q7hQK5yAXdyBOW1CLKBPqtz9UT50neTFEyUdmNchBPVKOKx6nOBiJFlIwP5sgRd9H3Nhdnvmx81Nq0lJ882jV3mRk4Csdnz8nAuTWbdf/vC35R1y1Zv2+zCmsQvfUA9T1vvgJuWUlIjjbjPeg4r3sE2vhaA1gb7PD15s54IkafatB2mossmtXPiwgQtzNvjw6W9cVSinqZNIUiY1Cjswk/oocicw6Cf/u2C6Sq69HBr48XcfvnrJX9b8jT4s2sP2ZnIgsjUrQfm2mQvduQCkVJKqf3L9k9Iy7Hi2Bq5EA1cN9i1Jn7Ro0TS2rJkzZ2MYrfRy5cpYYRUrlEePnn0we+5cfDb849h4pzmzZDmfPXsOn332eWy4btzk7g/TiRsoNWrWwKSIb7Fjxw4891wDZMiQAR1ea4uM3DGMHjWSjuA9lsVfqFDhwGTYuGETLpLXr169DrZs3orMmcMsH4L8COnSpUdmmpK618fpjOOVtRPZumUDHbkvxssvsYdaBZ34uqELOWg9yoJ8hAC09bA/diQt3boPOlA5vwO30WruXdWF9BkSywncJQEHo4Dj54BwWqvTmrsQmobsAfGGGyHrkz4VoNomVe6C3T7kusOBV0o5kTktUI+7g4eKxLVx6kYvnnrQaZWh/HtxMdlFsD5Jazox6VrJZS06il8kmwMFczuwgTsQySK2swst48IMzxPmQL86HFZ+7E0sO8xnHbPf5kCbh/11fJIW/Vct/O09dNqHP2jtv8/F6E7q9L7bablXcWIOAdlI/rsc1i5Aem1f1oUDh3w4Rr0F01VK2vtqGafVh6WZb1n24Tzu1KQxs0NLn8ph5W3KT+qaXP2T65+k8rbf2Rq4Wg34zZarSF25SiWcPEkzliKOvOMbXSzu3GRVgWB/5GgXnrCZYVnzJrxLl05YvmKlBbBZs2blyZq4I5gXL15ESGqiWYCIw//kk+F07tJ8dhAAp82w3k6YMNaiWapVr4rRo7+Ml08nntZZu3YtDWkffQDzEBk5C6VKlULTpi9badfRn5AUjZMuHXmDFMpeWtFDFnuxluAl4aYDBQgYkn2scllSKIGSk/RMYtKnphODF3lR8yM3chDgmpVzWEAdLH5S5e4lHZQzS/xUeQisO0jpSPbytOnybV5MJb1kJENGYA/TPZAjeP2WcEfyBS3r3QThVOyic9wllCU1dIlZnDoBFCLQG8lHwHcmM7J2HvUhT1aTwn+9l22W/EQKKjQMlmXvfwMUZP3/PhpX36wBi6YAny4gnI32IasF0SaV/5qS9ubwu5WsBNm5wOyN2WHEzyllT5up56Tqn1z/pKwUO5atgSvTwFVb9oHFiBL5euwYFCteLDY4jE7U8PBwDH7/w9gw3TRs2ADbtm2jZX8Wq9esRbVqVWLfL17yC0qXCo991k39+k/xLP3HyEGn7erVy6z7MDp8c5IqkjR4pj4OHDiA2rVrWs/60//dvpj/02ykTZuWVnw6HDh4CAULFkDtOk/igfCH8evSZRg06AMUL14SOrt/LTKYNE06gt9c0gk/kzJ5pmycSnOQ9jjAxSBQ/j4Z/znwXQEC2oj6LiztEoJXyjvw7lSeJiIoBpOkyi3ABeUPLjSBsisG6BWmheC58k6rvqqz+SQG9F5WoRdPpDxBLvvnjiFYROpHlr0kNZubgTTQH9yRGDlMisbrNk/Br/nZ1j/9tkJshNOXgItMVyCLA6dJrXgCmi7q47YEC1hswmRurrS9wbJLyteSMH5y9U+ufxLmZz/bGrgeGohDpmvIbeinH1oO2sAsdHZ+yAcDMZHcuigVib7c1IHO0Q7t2yNbtmy4l4tDzVp1kZHUTJkyD2H+vPmoXOVR64tUtWrVsNLoPH3E9z/QKRhCHn0hWv9fO7zzTl/rnL3KGPDeYITxRM13302y4utP6gS7gwXzF1hlycM5ZXIEVq5can26db38S1xKP5ALwe7de3SbrBykVRvGjYAAXyA3c12c9VmJztppK32Q41W4NYpn7E8yvhE5Pd9b7LEATu8bT/RgMS1ocdWV8juRhvnK0SeRQ3bXX7AsaT0nVW41lnv0OJ2fSzzYQQtV5a7bGYecVQs5MJUc/EHSJRJx2o3In8tKDyYC4NN0a9zOY5RivJbzewLbY/h6xQ9neR9zRyKwvsC479DpimRG1qOktuSI1jFJyRYuRlU/dGPjXz7kJ9jLBdN/kQdy/opeGvGzD+VZ75RIQl1daXsDy3CxyLTcRaw5nIhyAiPH3CdX/+T6J0iWdpCtgWvWQDJT8sryF5jr7HrnLt1QtVot62x7t65v8ujj6xaAd+/e23LCVq32qJXxq682x7u0wsXznyOHf4K0UHpa4o2bNEe9ek/GFt71rU4oUoTHKwn0oo505j46OhpvvtWDp3O8+O23X6wvci1btjw2jRYCnffXl7F279mLyo9Wst7p3P3vPLKpz4EE/gFFkIN21BdjLKopNrMkbt6o7MQMOgvLvu/G82M9qBDAjT9/vxNV6Rxt9LkHZQa6sYIAWZJ8sJEtR4Af6OgUx6tQOVK7TfGgylA3HhvmRi06WMvEnMd/oqgD0aSIKgxyW4tKUuWK5/70eRe2/Am8SkfnVgJofZ7sMfJMcSfqMO8GIz1WvXvTam/K97LSg4kWsqZVnXhjggfl2M4hBPaSdKwaGVDLZfkTKn/gRqUhbhQmHUM/fJKSm1TPuw2c+HSBFw9TN03GePDSI06IM5eMZv1X7mF7B1MPn7hx9+1A90fpuEiBJNTVlbY3YRHPlnOi9xQvus5J2okdmC6p+ifXP4H52Pe2Bq6XBhwExTiT7wpzFfBWKF8Zv29aa6UsXbos8ubNi6efroennno8lqtv0vRVDB7UH6d4MubuAvmto5jlylUiaK+00r3+emcC8h6evBmLjBkz4pdflqJTp7cwa9Y0TJ7yI0aOGIV6PJbZkovDGZ5hfG/g+8ifL591Jn/y5Im05FNbxyvr1XsO304ch72796D/gMEsL4rHN9tgDfn7ge+9S6rnCatO6XSWj3KIx0flW+j7di/r2fzRoqUdxZWInIOJHV2UdXqep1Pk3EwookgC/MPWazlos4iHThiZz7K+A0E5WLk6wSPnqY4iGmk52cPdAdCvRhxgquOjaDXLiSvRorOcjtqEkiezA6XoMFY7ztJ6N/ETxtO7VFSbnKRGdMRQZSSUmvc4IWezRJZ7UnmmZTxZ2FcqCXWVsL1Xkp/SaoejE1YJJR2P2cphHkykk4T1T2n/BMvPDrM1cLUauCawl3W9hDx71aqVrfL1ezXBnJtaTxx0rhoRmOqnDsqWfdgK2syjkwULFoxHv8giv/POO6xvw2bMmCneOyXSb+acY3k6PWNEX7rKkiULF4Qz2LlrN4pyN6DvAGhRypw5M5b+ugzhD5SMraO4fi0e2jXcTCJQqs6dQRHy6mXy8dQMnarLebpkxIsu3H9nXD8kbLP8A5M3XQ5mxXiyR6dlrkZEIR0hvZVQWj/sShTgE8b9rzyLovpw6eXWfaY0PC3E0zwplavtn5Tmb8ezNRBMA9cE9sEytMP+GxqQtfz1Wi/+IHefixz4E6SX5AC25b+hAbt//hv9cCvVwgb7W6m37bbaGrA1cMtqIOV7z1tWRXbDbQ3YGrA1cONrwAb7G78P7RbYGrA1YGsgWQ3YYJ+siuwItgZsDdgauPE1YIP9jd+HdgtsDdgasDWQrAZssE9WRXYEWwO2BmwN3PgasMH+xu9DuwW2BmwN2BpIVgM22CerIjuCrQFbA7YGbnwN2GB/4/eh3QJbA7YGbA0kqwEb7JNVkR3B1oCtAVsDN74GbLC/8fvQboGtAVsDtgaS1YAN9smqyI5ga8DWgK2BG18DNtjf+H1ot8DWgK0BWwPJasAG+2RVZEewNWBrwNbAja8BG+xv/D60W2BrwNaArYFkNWCDfbIqsiPYGrA1YGvgxteADfY3fh/aLbA1YGvA1kCyGrDBPlkV2RFsDdgasDVw42vABvsbvw/tFtgasDVgayBZDdhgn6yK7Ai2BmwN2Bq48TVwzWB/7tw59Os3IFYTp06djvcc+yLg5tKlS2jXvmNACKB0HTt2iRemB4/bg1WrVlvhvXr3RXR0NNauW4/z589j3779GDZ0xGVpTED37r2tW6/Xi0OH/gz6OXLkqIluX20N2BqwNXDTauCawX78hInYvn1HrIJCQzNhytQfsWfP3tgwcyPAnfrjdEydOh3z5v3kv+ezz+fDsOEjMHfuT2jWvKX12bp1m5XMFeJCjx59cPjwX5g1cw6OHz+BLp27wul0YvnylVizbp3J/rLrD5OnWGHHjx9H2bKPoHHj5vE+DRu+hEaNXros3bUGjF7txbIDvmvN5rL049Z5sWTv1eW7dL8PY9d6L8vTDrixNXAz9mu/BR4cPH114/x69ua+KB+Ong2e4/ajPkzd4sXO48HreeICMGenFz/t9iLqYvA8TOiBUz68s9BjHv9n15BrzfmrsePw+uvt0KRJi9isfLSkW7Vqixw5clhhhQoVRLdub+L4seNYtXI13B63ZaHrXhJ9KRqzZ81FRMR47N9/AH37votcue6y3kVFncJLL72AdbTmlW7lilV44YVGuHDhIjZt3ozN/DR/pZUVN3369Pj0kyFcEI7jyNFj8Hq82MaFKEP6dKzLnVxgZlrxzJ9dO3ejZas25vG6XRdu9w+AsrkcSebpZbT20zwYUNuFTKmTjGq9XLTTh5K5gEfyJZ1vsJw2Hfbh510+NHkg2Nt/LmzLER++3+hFzyquf67QqyxJk/lcNPB8iWu2ia6yBskn+6/0a/I1TXmMWWt8eLwYcFemlKdJKmZy80zG5qlTpyD8SJUqFS65gbe54Mxc5sMzlRzo/mjcWPVozv7owaZ9PuS7w4GB+7yoGe5An6pxcebu8qLXZC/u4fx3077q9acb7z/nQrncweft32eAWet86FE5qVZc+7trAvuIiB9w9NhR1K1bB7lz5bZq893ECJR8oCTWr9+Afn37WGGhYf5eu/e+4sgydx6i3W44HU5kyZIZ2bNnx7hx3yBX7rswesxXWLx4CXLmzIEvvxyHdu1aY8OGjVjEsBW04k+cOIFx30xAaFgo8ufPh00bN6FFi+YoUrgwWrduh6FDP7LKm8MdwpQfpuLc+XPoSSqnfYe2FoXzaOXq1nt3NMt3uuD1epApNNQK+zf+aElYyk6+pGqlAOz/jTpe7zJlsS3ZypZXud45X//8NvxJEKCF9nyJ65+3neM/p4Hk5pnA/uLFi0iTJg3cSIWnRrlR4E4Hit0TB86igiXzdgNbuGuf1ToE508fxzFPJjw7AmhW2oc8Yf74Q+Z78WpVJ5qF+42EIUu9+HCRF+VeilsQ/rnWx5V01WB/4NAh9OzVB6lcIZaSHnq4NMTfL2y1CNMjp6Lxy81QtFgRZMqU0eLXTZFfff0NevboBtEzefLkwdBhn6F797fw+cgvUL/+k9bnL1I2I0Z8YYF9xYrlEXUyCiEuF7n7NfDQui9x330oWrQIflu+Ak83qI/SpcNx4eIFKK6kUcNnrU+RoiUQMWkCjh49ai0gixbOs96/1qETKpQvhwZMG0xUdt26tbm7oBmdAhm5wouIlV6c4ZavTmkHaam4RLrtM8+Dn7f5qAegRAEHhtR14eRFHxqO9m/dnhzpRtV7HXi7ugt/n/Wh5xwvft/jQwh7p84DDrz5SNwgOXfJh8YTPdj2hw9FaeF3quxE8ewOXKQ1Um2oGzP/LyR2l/ABB9nFaB+6BVgmA5d4MH21D2m5uDz3kBMtHgxutXaa6UHe2xxoV8b/XhZN7RG0UOq5UIITYcIGL8Yv9+L4SaBIXgfeZ5uypve3+yQBsgvT/77bh9RpmK6EA10quTBlsxeDZ7JOfF/xIzc613LiiSJOrDnkw8AFXuw96MMdbEvzcg48yXDJCOr2T26nD0QB63dw69zGhUtU21szvNjP3Ur2rA40KeNA/WLB26E81Ad953uwcLOPCzx3RkUd6FfDhSgB+Tg3ulLvFanLC9Ths1970KmKE3O2ezFvrc/qy4rb3fj+FRfuyBg3+ZWvrP63ZnmwmvVKl5brV3FHrK4TK1M5JDYmMrBP1nKBeY9gEU7baepKH9pVd6LR/U6I2lD9pbuSHEPv1XEhlLo1Ikt0LuubLYsDLco7ULdw4vpQmkUcX0MWenH4bx9KFHTgIfbhLlITA7nLHPyzlxapD13ZZxJZulU5tmYQ4MJYpiiKLpG0bpkHWVs8/7ATL5cM3l8fP08adjqt5JYhSJfKyg5fkU5cTjpyOMdSYrL3hA9vz6KvjTvBQrSIBz3uRI4Y/SdVfqvJHurOgenrfTh7wYdxjV1B51lguaKEHQ4HscWDaPbOy2U8eLoodT9dbfLX8fTp0xZ1fGfGjOjDsa62nOVgyp3Jg7RpQ/DHCRDs/bn6OD5zx9wrJHdmGnX+qW5FkMGj8buNu4PstwENE5mD/tyu39+kR0QS5XR64y280rxZvBgffzIMFR+piFw5c+LBB0tjNcF5+LCR5OD9NIsia6v02GO1kJarqADVSNas2ZA3X15MnPg9wsPjuIbxtOS/GD0GAwf2t6KOHTsKHlrk330XgXtID0XOmEU6ZwuyZqXWgohooP0HDiKK27T+/Qdan40bN2L69MjYZzmHjZw+fQYD3huE+fMXmaAkr7MICmM4aXpw8s1qS3TmTN7GgWxEvN2eY8D4Ji5MaunCYYLjp8s8yJnJgUhOHsm3zVzoXtk/qEav8iInB4fy+phbv8ncSv5CYDcykzuBVuWd+PH/OOAIDh8t8Vsc2qqeISDqauTUOR+iuMAY2ULwFVBO48Trzvp+QYDVljOYVLyb9Vsf927xHi93ZFysCPQLOck/Y9q+j7kwu30IbufmqNWkuNHc/DsPXES1H1q5MORp6mWDD1+u8eLJok704KS9LQv5zDYheIyAdPiMD20neFClkANzXgtBqwoO9P/RixUEfslp8p0zuThVppU1vZ0LOai3bpFelMoD/No5BH24YIyljk4lwYsOWOTBhv3+PpCufz8IDFzsQWYC9Itc8HrP8FiL5SAuhHdwkoom602aqRa35+UJ4Krr7QmAXnUb/psXR7kFn896T2D/rmMZpt6Jlal0iY0JvbtANe7g+Dl7ieOihQv1uIgpr6VcUD5r6MIEhkknnQm2RrYyfgEuepGsZ03WdwAX1IBhYKLFXgU2b7K/HqOBMbcD03Dx0xg+ETNWTp2PP26Ul8aWLybTV9i/txPkZ7ULwbuPuzCSi9PimDGfsL/K5HEgNYFRbTYyneOhTP74C6d5Z65DWZ/e7FuN80zpgJYRcelf+dadaPknzlFv7JfO1ZyIaBqS6DyTNS9rXVdJCC0rNxmHEPdZ1Mx9GgL3i2dPkArmoI95Hx0djfvviKNRtUhEbr1EwxUofVdce9rSAPuQ80O+u89pBI7+xYs2j8S9bzXRi1C2aRoNl36cQ1/y/T8hVw32LUmftGjRNLaOM2fOxjBa6eXKlbHCKlYojx49+2D23Ln4bPjHsfFOE3RlOZ89ew6fffZ5bLhu3OTuD9OJGyg1atbApIhvsWPHDjz3XANkyJABHV5ri4zcMYweNZKO4D2WxV+oUOHAZNi4YROtoIuoXr0OtmzeisyZwywfgvwI6dKlR2ZSSLrXx+mM6wjtRLZu2UBH7ovx8kvsIXKLD3UfdKAyB+9ttGx7k7tLnyEudq2CTnzNSSqrRJbhI4Ud2HoYUImy5CTpU3FC+HHfsqYENLLaimRzoCCtlA20YI1U5mSWL0B5vUqre12Mf8C8T+qakRO0JxcV1VP1fYy7kMhNcXkHpq1dyImTp4BdMQ6oGWxnDVrokqnk3J+iNRKe02HVsxfru4sOYFn0ApI93OZ+SBBQmxXnG1pXFWg5agFIw4lPI4ptps3E60IuQHcQqFoSdAW+dVhuxfscmMFdgBHtHF6kdav8lCYV18WDBJ/jnNjKf1rz+FauSWeu8373oQsnvxZYff6PE2+RqCTK88w37+3cwdB38tNGHwZx8knUH9x8Wh/VlcVeJopzinX446QPt2dwIILb9IdiJn1SZSY2JkwBpI3Rp5oL+UgLyIKcx3p1poWv8aCwobSIW9CaNpKDuyHpR/prRT16uOPQbikxkc6Vxui8QXEnStK6T4kcYv9qR9Wb9dMYlf6rl3Rg1tbE++sx+jwiuSuRaOe6j7sXLWJJSTMaNCVzOHAn+/wD9skBtkdlb//zFOf8sSTLr1faaS3Y2TgP1Sprnvm8cHku4uL505ZP79ixY9BHAC4RhXPhwgXopOBtt91G4zErQ8m5X+KgpqROndqy/A2do7C9US4MnH4RvZ5wxu5aFK7yvGzuj9xdTOMnhIM2XWq/fvdzl3qQ+vuAuwO1TfprUiFpXSjP6yExEHPlWVWuUgknT9JMpYgj7/hGF4s7NzlVINgfOdqFJ2xmWNa8Ce/SpROWr1hpAawU2qVzR/PK4s1CZAYEiDj8Tz4ZTucuzWOixLRpM6y3EyaMtWiWatWrYvToL+Pl04mnddauXUvrxkcfwDxERs5CqVKl0LTpy1badfQnJEXjpEvHZTeFso/VKpsv/kTJSfAyspedO2SxF2s5wSTclKBAgBVg4pmrTtt8QctkNy1bTfpztLbK0so2kpWgYiRHRi2QflrAhCV1DayX4uVnPddxKxlMUnP8VeDCMoWLQUda278R7McTVCV7eVp1+TYvaYa4CZ6BddnDrfcxWoVyg3BnGyu5QuPqHBsYc7OD1EFuzasAUb1+i9GXgmUFBUqfmk4MJgdak1RQDgJ1s3KORMHjEqt4kn3UkZZswJpugbjJsx8tyMc/9uCVGvQjETBTKk1LOWkNe9D4S27lCXwCGYEt3VFJlpncmEjLOpi6WvU/7l/4Tb1EpQRakmEBxoXS0R5Kcqez6xj55QQ6vzsbsDMFp5A3k1ahAYyqn/gtXlOn4rTgjSTsr2e5eI/nDlQ02TQusg9wF5fcgYRCXNiMaMGTobKd9Ys65WH5PlT9mANfio4RlW9Z6bTUMzgv0OHqsQBaIC7Q9nnduEhjMjQ1jTGyC+LoLUteXClFYC7JSJpGFrvESZPd4/YvBrL8BfT6uFwuy6h57XsHXq7gQ7X8VnTrz5/cqb5Jy/0j0lflaaRIZnCudBhPY+L1EGzleE84PwLbaiX4H/0JmJJXX4Ioka/HjsE3E76NzSSMTtTw8HAMfv9D9O7VPTa8YcMG+JoO2bNnz2L1mrUYPKg/Fi/5xXqva+lS4bFxdVO//lMoTKu94xudMWPGFGzfthPduvcgB5/TitfgmfoYNWoMateuGZuu/7t92XmpIM5ewH3g4CEULFgAtes8ySOchznRQ/Dr0mXo06cvnmb6vm/3ik17pTc5SLkcIKAHyt+09DTAJIO5Hc3I8TaXW2wN2g9/JfAnAFizPZY10IsWZhs6d54mhaOJ+zwpjpSILF5JFHnKsDT+B3HSaQJ6+IhVL388/T3A5xykVBKThrQWe5F7L62dBAE4P/lgSU6meZSc+uvl4iabyWMfLW7ugCGQ0oIh0SSP5nOwCZ6Xef4eQ9n4YwOHqM+7kqhXAfoSRtR3WdTL7B1e9JviRTGCfuEAgDB5qQ4ZSc182MAVDyDNe12HLfOiIMFiEn0QTR5wxu64AuMEu1d7tAvrVYWLH3czPXhKIwP7+hUuAkmVmZIxYcpT/UM5xvYQ8HNxEZXIfyLa6koWJn9K/9/cmR3YlEDnB/12mxWBuIbj3NUZOc4xZeRu9pfeLyJ1ZcaceZfYVRbs3RxDc9hXc2jht+DinJzo2KNZ0DR2zpAuy3cb2x4WhjQZL2EB6cNUrpgBxsxkoUdFnYb7ogPRdGD5fCHWCZtMmTIhddp0cLhSE8jT8eOwAPsMMxRLYIBdYC7eXh8jTlcq5nPeWkQULpDXAnHGkwpNxnnwRLgXz90bs8jEJNr4F/1UXKwN0CtYdGUfj5eLlc+aQ5of6kOjv300kv4JidPWNZQ29NMPIQdtoGiVHfLBQEwkty5KRaJVsQOdox3at0e2bNlwb/FiqFmrLjJS6WXKPIT58+ajcpVHrS9S1apVw0qjzoj4/geLU5s/fyFa/187vPNOX6uTVMaA9wYjjEvld99NsuLrj4A+UBbMX2CVxV7DlMkRWLlyqfXp1rVLYLTY+4GDPsDu3Xtin5O6qVSAuw060nazw9Rlo8jTnTwRl+Ig78NomQroxU/P5Fl5I+rstLTC1hz2h8nJqoEgSkBALwDZHsDXm3TBrqIUwjgZvmX+Gkg7aL2t5FHNQNHmSNy5QkXPRJILrxJw4iAwru412birxQg6ep+4P24SVKVlNpW+BVE2EnH4jWi5COB1IiE7rcS+P/mfRe08/aUboxhfIs79BBcEOdkkle524A9u0eX7kGyi5Th/Pa0llhFMVKIc1OKItZBVyu9EGurX5BcszUNs48e0LKVfpf+E4N5zrn8R/Zn5/Eprc2wjF4qSMutFZ7oR8fS7/vIvXCbsfTov1deS/uTSP+UuTDUVfZODi9BJ0jqSpMpMakz4U8f/W5bUn5yp0qWcpV3oFG5DR+TVSkVanKLaZsfw6PIz/BpA593DhX099SLKQWPpcy6CRgT2skw/otEiLUinbbnIRZDaS0rqkQL8ZpUPhzkuq92dPOx8QR77COfLRZ5d7M8z6Ldxwcsecg63OaKQPuQk3l90Nl75k7c4LRrGy61ueq60YVoUYqgZJ2Nqnq0lEEtE1wi8/VZ/XK2FNYbWUagsex0jl+NWogXh+KnzeHncJZTNfwEv3ucfU+c48KUnyUN3OXGeBzWmB9Ba+n6MNiH30SCRoRJK40Nt0iImWmsMdflPCKfL9ROBuc6ud+7SDatXr8aC+XPQreubPPr4On6aO8vi8OWErVrtUZ7kAV59tTmK31vM4vnXrlmHE6SF0tMSb9ykOY9jfhlbsa5vdeKJnd4W0Gfifk5n7ovxpE/3Hn3YEV789tsveOHFxihSpDC/PPWwlU4LgTpKX8bavWcvKj9aCR988JF17v4MnbCSAwn8AwqTg3bUF2N4Uig37r47v4KSFHG+W3miodHn/gFxP4GlJCenkTcqO/Hm9zwBs8ptndioVIwA8rd5y9MftI570zJdeB8XrpouNKVV/watee0qc9MZWjIJMI7LxX/XiTREv6lefP+rG3RJoFxAPRSjNMteTW798/luLrzkx+lreIZ8bVJSk3zrRALc57SMjSiNqIAGIz3WhBPd1KOuM9aSH03gbPODFxUHu+lM5wSgA7A16Q2JTg5JR7U+duMtOmvF3fZ7xon3ePKiD/WQiu1uWsmZKCBIswKOblM8Fv/P3bjlSC1DyzEx6U+9/t9UDyp9SIuP9dGJnyFPOXGaC1kP7qS6kMYRz/o29ffEcG63i3qt8p9gvWfQmVhhkBvT2roYh9Y/F4pcmZ0Q6D1JPXQk6H5PMNRkv4f86ysxJysSK1N1TG5MJGyHTg7pbHdNUifqt5wEjU+fTrrfEuYR+Cwwf4P99c50OkEJVJk5Vqo8wEU4ZqF6mu2aTj/Hk596LCrxRfaHwxWDZszoC/Zve/avxhm/4I7SHGd1udOTeKIv0bF5lqAZyrRxRtcTdM6/P9ONGixHhkwwEX4YS/sl+qPqDY/iCT86g+8MxfDnQqx3ssY/eZanoKZHY9rqaJ4acljlP17UhTMnnHClphUfQ8OImtEJQWGBmWcLirvR6cFz8egaUxdZ7gbYFeaQ55UjXOkloniGLzuBvduPYO/OEExb5t9qOWi1vVjNizfoZ5DfZEBDJ/rykMEH80T7+B3bH1JnMsgkw7lr70BMKLfCzQWHxgs5+7H/gJPWwYbE9aK/Lin+K86+QvnK+H3TWitN6dJlkTdvXjz9dD089dTjsVx9k6avWnTNKZ6MubtAfusoZrlylQjaK610r7/emYC8B+O/GWsp9JdflqJTp7cwa9Y0TJ7yI0aOGIV6PJbZkovDGZ5vfG/g+8ifL591Jn/y5IkW36bjlfXqPYdvJ47D3t170H/AYJyKiuLxzTZYQ/5+4Hvvkup5wqpTOn7JSnKIx0flW0hI4wQOOitiCv5olT5Pei/wOFxgsmOcSOZoYmC47tUBonBk6UuUl05jaOBcqSgvTVo5YRMT1VPOx1QxeLFgN7/lF2NpB6apeY/TcqQGhgXeqyylS6yeaoMGuCknMK3aGMLyY5psvdI3DcVHp1TkoM3CdioPOe+WcyFLKHlIWZQiCEtkFatc4xhXbBqO8eon0FbsQEDSjkV0ikT9FPhOYap3OurTTGaFGUlYpgnXNakxERjP3Kvuys/U34Qndk1Jv0qHGis6pruNlu/npMeMiCpKDUn4AAAAQABJREFUw8dAKlBzQ1SGgPGs238EMbB/Ba76gpIs60Dfl3RUkwv8l025g+Jiq7odjRl0qdKkhZuLxLkzp3hCKCOykvQXLOnLkd5UGXF7WPyJIApGnHtIhtuQnguwKV8YID5eH4nqqe/mZMmSxbLK1d+naMwt3HEe3jS3xVI2KkuWfrk7zrCfeUqLq5+hc4RxWmDMwqX2S/TexLECgvyRbyaEgykxn5V2amqaf3QGyeA6B10T2GvLs2TJL6hatbJVLf1eTWAHm7oaZZpnKUw/dWCs8M08OlmwYMF49Iss8jvvvMPq8Iy05hNSM/rNnHMsT6dnjJiO1WDYuWs3itLS11ZNHaYOXPrrMoQ/UDK2jgcOHLAWD+0IbmUR9aQtc0Jp/bArUSBPGPffft5GPnTyJv9EDKxLMX7L0ZzZDwy/Fe6vpF+DgX2gjmTxah5p7mo+y8o1oBoYT++M49OAoSiN0b8SRFOfxqiGoRbwqm4Hj5y2HKBpM/rBNfriebxQ/ALuzEzrnGAqukXz1lj7phwBvRYUHfAIfKfFQVRLqHimGPn777+tPMxpGsX5bksqnuQid89jlfreTuo0/OZs2vRoVtKNjCFuq12m7iafm+F6TWB/MyjAboOtAVsDsPwQOiN/P6nDYCIQF9DLopdRJVCV8zNQBPICYhmBimfez6Q/5sRZLx7NcZxf+vJz6UqnY45R3H0HgrYAXmfcVZZ2B2l1NCmBqByBtix2Y3ErihYALUqBlrniyeCTda68FUdArnRaAPROdb0V5Lpy9reCwuw22hq4GTUgH0RSIoA0oKhrILetdFoMBPQCacUVkBvRdyd8PgeOHCGnH+Ps1DuBreIrzFjoAneBsj5aNATGCa1sPSu+QF+grTz0rPx0yk91MWnENATmHSw/U8+b/RrDRN7szbTbZ2vA1sD10oCsegFtoAhcZT3LmhdgC8AFwkb0XsCsdAJjI1o4AvMSwOtZVIwWDFniJh+lE1UsQFeY6NojXEF0lQjsRS8ZoFeYwF4AbyTwnQm7Va62ZX+r9LTdTlsD10kDxsIXoJv7wKwVZixvAbAR3cv6N5a3Af1AsJeDV4uJ/AGKL5pHH1EzErNjME5TLSAGwFVmILCbcu2rXwM22NsjwdaArYEr0oABeIG0uQ/MQKArAJaVHgj2svhllWuR0HtjoetZImtdi4G4eolA39wbQDfPVgT7zxVpwAb7K1KXHdnWgK0Bgbmx3INZ0ua9AXGjMS0MAnCd6tG9AFy0i+LJytdHztrABUTxbbk+GrA1eX30aOdia+CW0YCx3APpF9N4hekj4JaVrtMwAnVx8AJxWeay+CWy+pWXkUCQN2H/5lWLkBzFZgcj/v+/Vscr0Y8N9leiLTuurQFbAxaQC/QE2uYbqubUi6FpBOICc3Hq+hhQV7r/CmBqQRKgiz5S/VQvQxcJ4LUD0c5C9dfCJX+BjnuaODfaULDP2d9oPWbX19bAv6gBnY4R6AkgBZYCSHHxcpj+V0FQ9QxWN53i0ekevddHbTDtENBrAdDpIqVVe7VLCfyG7r/YDVdVtG3ZX5Xa7ES2Bm5NDRiwExAKBIOB6H9JM1qYtNsQaAfy/wJ5Wes65aNw7VK0kOlefgiBu+5N+9Re7VSUJtg3h/9LbU6sLjbYJ6YZO9zWgK2ByzQQCJiXvfyHA0TBCKQNDRPoA5ClLopJH70XSJu6652eDcWkahvKSRy9wF47Fi0UiitRHvqozBtVbLC/UXvOrretgVtEAwJcgaysbMP361k/q2DCdRV4yxEsK1yLgIBbp310FXCLopEoH5OnUaGetRhocZAorn4WQh/la5zOemcWF93fSGKD/Y3UW3ZdbQ3cghoQAItflxPY/MiZAFt0ioBY9wJ7/ZtBgbKsdH3kTBXwC+gF+AJ0xZUoL9E2ongUV3FE7UgE5gJ+/XtCLRpKp/gqw3xb14p4g/2xwf4G6zC7urYGbjYNGKAVmArMDd2idgp4BcICZAGvEcOhm2cD4go3Yu5NfsrL7AzkVBaIi85R+Vo0tAsIBHPFNfGVp+qhZ5OvKedGudpgf6P0lF1PWwM3oAYE4IYCEVAKeA0wqzn6KQSBrSxnAXAguOq9wFhh4tHNN24DwVb56yPrX3EC3ym9RGUK2APBXuGmTN2rTipLkrAOyt84dG/kb/DaYG91r/3H1oCtgavVgIBUEgjiepYlLktZICsRaOpUjEBWIoBWmOiShACr98rXOEyNda74gYCu9/oYUXnmuKQJMwuMqYcJ19XUWQuSFhMtOEZUf/NDbLL8zckd8/5Gu9pgf6P1mF1fWwP/EQ3IIhdgCygFmrKszTl1AavOqgvYTZjAVBay4im+QNpY8wJ2A7ymeQJ2fQzlovCEgG2Ogiqt6qGz8AJms6Aojd5pgRB4q2wjZjFRPWTVm7zMey1AAvhgC5GJcyNdbbC/kXrLrqutgf+IBgxQGmAV0MqqFqgKNPVewGys6sBqG1BXGsXRiRfFF7ArvqgS5aP8BPS613tdtcAovcrV1eSl/AXK+iiuEd2bxUgLjYDdlKGylZ8WgITn8JVe5d1MYoP9zdSbdltsDfxDGhDIyqFpAFEOVFnHAlaJQFcgKsA21IssewG50hrwFvjKCld6iWgTpVHessQFzHpWvspHgK2rdgsCfCPKT3lJTF4Cc53Qkag+yst8VAeF3cgcvNWwK/hjg/0VKMuOamvA1kCcBgzQK0TAakDYxBAForPwAnmJAFagbaxyAa/CBNxGBPyGy9c7Wd6KJwA36c1ZegG88lae+ui9FgnFl6h+2bJls8JN/rfy1Qb7W7n37bbbGrhGDQhkZdHLqhbYCmAFwrqXaBEQUAuEBdwCZy0KAmyF6zkwvtIorRYEOW4DFxSVoTyMmDIMDSNLPaGYOAnDb8XnayaltAr36zcgVnenTp2O9xz7IuBGHdaufceAEG3fTqNjxy7xwvTgcXuwatVqK7xX777W1m7tuvXWdm7fvv0YNnTEZWlMQPfuva1bDbhDh/4M+jly5KiJbl9tDdgauEINGDCVRS5+XU5ZYYLELATG2haXr3haHATwupeYBUC4oLTKRxII9HrW4pDwVyeVt/IJBvRKY0ucBq4Z7MdPmIjt23fE5hgamglTpv6IPXv2xoaZGwHu1B+nY+rU6Zg37yf/PZ/V8cOGj8DcuT+hWfOW1mfr1m1WMleICz169MHhw39h1sw59LafQJfOXa2BsHz5SqxZt85kf9n1h8lTrDB56MuWfQSNGzeP92nY8CU0avTSZemuNWD0ai+WHYhzEl1rfib9uHVeLNl7dfku3e/D2LVx/xPU5Glfb2wN/Nv9KpAVDSMgF/AKkAXamtOy4BOKDC8DzFoo5BgV+MtJK9BXPh/8lgYHT18+zgX+hvpJmO/1fj7E8n/c4sXWo5fXw5QVzemk93+eSTyO4i7a48P49f/+3LtmGuersePw+uvt0KRJC6MD+NihrVq1RY4cOaywQoUKolu3N3H82HGsWrkabo/bstB1L4m+FI3Zs+YiImI89u8/gL5930WuXHdZ76KiTuGll17AOlrzSrdyxSq88EIjbhsvYtPmzdjMT/NXWllxNVA+/WSIdfzqyNFj8Hq82MaFKEP6dKzLnVxgZlrxzJ9dO3ejZas25vG6XRdu93d+2Vz+rWxiGXsZrf00DwbUdiFT3L/qTCw6Fu30oWQu4JF8SecbLINNh334eZcPTR4I9vafC9tyxIfvN3rRs8rlW+5/rhYpK2kqJ/s5fmnz+RLXbBOlrMCriPVf6VdTdQG4sfZFxQjY9cUpXQX+WgQCz8HLihcNI9E7AfrstW48URy4K5PJ9dquVzrPWk/xYB3nWkHO392HvHiokAMfPn75eB20xIMffvahwv0OfPLE5e9Nrdf/6YP66YX7Tci/c70msI+I+AFHjx1F3bp1kDtXbqsF302MQMkHSmL9+g3o17ePFRYa5u+1e+8rjixz5yGaPJ/T4eSWLDOyZ8+OceO+Qa7cd2H0mK+wePES5MyZA19+OQ7t2rXGhg0bsYhhK2jFa/Uf980EhIaFIn/+fNi0cRNatGiOIoULo3Xrdhg69COrvDncIUz5YSrOnT+Hnt17o32HthaF82jl6tZ7dzTLd7rIJ/JLHuQO/y3RkrB0nQ+XVK0UgP2/Vc/rWa4stiVb2fIq1zPX/01eGzhJT/GAx/Ml/jf530y56uSMOdpoTtwI9EW7GD5fVnkwy9wsDuZ6vfVyJfNs5AovdhGYF79OpzDR8TgZqae+cGPVQR9K3xVnZK1nnJmrfahUkr/LowJuALlqsD9w6BB69uqDVC7/7z8/9HBpi29b2GoRpkdOReOXm6FosSJcxTNag8Do4quvv0HPHt0geiZPnjwYOuwzdO/+Fj4f+QXq13/S+vxFymbEiC8ssK9YsTyiTkYhhJbBqlVraB24UeK++1C0aBH8tnwFnm5QH6VLh+PCxQtQXEmjhs9anyJFSyBi0gQcPXrUWkAWLZxnvX+tQydUKF8ODZg2mKjsunVrc3dBMzoFogESsdKLMzx0UKe0jpXFJdJtn3ke/LzNRz0AJQo4MKSuCycv+tBwtH+b++RIN6re68Db1V34+6wPPed48fse/Qof83vAgTcfibMazl3yofFED7b94UNRWvidKjtRPDu/6s0Tb9WGujHz/0JidwkfLOVPu0b70O3RuPQDaY1M5yBNy8XluYecaPFgcKu100wP8t7mQLsy/vca0LVHuPF+PRdK3OnAhA1ejF/Of+hwEiiS14H32aas6f3tPkmA7ML0v+/2ITWNttolHOhSyYUpm70YPJN14vuKH7nRuZYTTxRxYs0hHwYu8GIvJ9QdbEvzcg48yXDJCOr2zygfDkQB63f4MLUNf3qWantrhhf7OeGyZ3WgSRkH6hcL3g7loT7oO9+DhZt19ps7o6IO9KtBi1NAPs6NrtR7ReryAnX47NcedKrixJztXsxbq39qwbpud+P7V1y4I2PcZFe+svrfmuXBatYrHWnmKsUdsbpOrEzloHfBxkQG9slaLjDvzfcinLbT1JU+tKvuRKP7nei3wF9/6a4kx9B7dVwIjft+EN7m+7msb7YsDrQo70DdwonrQ3UXtTBkoReH//ahREEHHmIf7iIlMZC7zME/e+GmOdyVfSa5RL1U5dia0Zpn4FnmCfVvpAebmEf6kCjUu9+NhiX8/9Fp0s4wjuEQ9pfH6q+PnycNOz01ZrbUeys7fEU6cTnpyOEcS4nJ3hM+vD2LvjbuBAvldmDQ407kiNF/YPlkjfH8w068XNLf3laTPdSdA9PX86TOBR/GNXYFnWeJlTt9A3XOOSWg147gNo7pJa/Fh0mFd53uQVv2zc5jPhw5HT+3xWzbEI7nQ9St5mihO+K//7eekh4RSdSq0xtv4ZXmzeLF+PiTYaj4SEXkypkTDz5YGqsJzsOHjSQH76dZFFlUy2OP1UJabt0EqEayZs2GvPnyYuLE7xEeHsc1jKcl/8XoMRg4sL8VdezYUfDQIv/uuwjcQ3oocsYs0jlb+I+KbzNZxbuKBtp/4CCieH63f/+B1mfjxo2YPj0y9lnOYSOnT5/BgPcGYf78RSYoyessgsIYTpoenHyz2nJQcCBsY2cbmbPTiz3HgPFNXJjU0oXDBMdPl3mQM5MDkZw8km+budC9sn/gj17lRc7MsPL6+DkXJi/z4RcCu5GZ3Am0Ku/Ej//nQjqCw0dL/FygBuAZAqKuRk6d8yHK/0N+VtCW3dxFECinceJ1Z32/4ICcuys4l1jxbtYvgGdcvMfLHRkXKwL9Qk7yz5i272MuzG4fgtu5OWo1yb9wqaDm33ngIqr90MqFIU9TL5xAX67x4smiTvTgpL0tCzCnTQgeIyAdJt/ZdoIHVbhVnsNJ1aqCA/1/9GIFgV9ymj9XIguq8j2cwO1cyEG9dYv0olQe4NfOIejDBWMsdXTK/7MmVpqEfwYs8mDDfn8fSNe/HwQGLvYgMwH6RS54vWd4rMVS2/I7wvw0WW/STLXCHShPAFddb08A9Cpj+G9eHD0DzGe9J7B/17EMU+/EylS6xMaE3l2gGndw/JzloZNvW7hQj4uY8lrKBeWzhi5MYJh00plga2Qr4xfgohfJetZkfQdwQQ0YBiZa7FW7qzfZX4/RwJjbgWm4+GkMn4gZK6fOxx83yktjSwuf5BX27+0E2VntQjDg6TCMX5UZG6MyWydsznlSxeuvMnkcSE2QV5uNCFDL5I+/cJp35jqU9enNvtU4z0Q/bsuIuPSB5b9LemUkF0cBrOQELfFv2S+dqzkR0TQk0Xlmykl4/ZsLnvqg5mdulO7vRh1a9T/tjitb8YfTyAlN50CjIPSedNslwoNa7Id51O2T9zkwbXlSvZGwBv+756sG+5akT1q0aBpbs5kzZ2MYrfRy5cpYYRUrlEePnn0we+5cfDb849h4pwm6spzPnj2Hzz77PDZcN25y94fpxA2UGjVrYFLEt9ixYweee66B5Qzq8FpbZOSOYfSokXQE77Es/kKFCgcmw8YNm2hBXkT16nWwZfNWfu05zPIhyI+QLl16ZCaFpHt9nM64gaedyNYtG+jIfTFefok9RG7xoe6DDlTm4JUV0LuqC+njjg2jVkEnvuYklVUiy/CRwg5sPczjZcxQlpwkfSpOiBjjQdaUgEZWW5FsDhSklbKBFqyRyhxE8gUor1dpda+L8Q+Y90ldM3KC9uSionqqvo9xFxK5KS7vwLS1Czlx8hSw67j//Qy2swYtdMlUcu5PcUcQnpP/SJr17MX67qIDWBa9BvseOqfFcarNivMNrasKtBy1AKThxOfunm3mF114XcgF6A4CVUuCrsC3DsutyAkyg7sAI9o5vEjrVvkpTSquiwcJPtpiK/9pzeNbuSaduc77nROQk18LrD7/94gDi0QlUZ5nvnlv5w6GvpOfNvowiAuYRP3Bzaf1UV1Z7GWiOKdYhz9O+nB7BgciXnLhoZitflJlJjYmTAGygPtUcyFfmAPpeD+P9epMK1LjQWFDaRG3oDVrJAd3Q9KP9NeKevRwx6HdUmIinSuN0XmD4k6UpHWfEpHjUjuq3qyf+r507hDUCA/B7O1xqRP212MExUjuqiTaue7j7kWLWFLSjAZNyRwO3Mk+/4B9coDtUdkJy1f/VyeVMmtr3HipV9pp+bWycR6qVcHmWbCyj7Evo7mQfkXjYSB1/OubIXiWeXXlQrMzZh6o/Am/eNH/seD1N7ptzf5RfzxN3ZYukjLdBqvT9QyLgZgrz7JylUrWMSulFEfe8Y0uFnducqpAsD9ytAtP2MywrHkT3qVLJyxfsdIC2KxZs/JkTdwRTHnlQ2QGBIg4/E8+GU7nLs1josS0aTOstxMmjLVolmrVq2L06C/j5dOJp3XWrl1L64bc2+J5iIychVKlSqFp05ettOvoT0iKxjFHwgKqkejtPlarLLdqgZKT4GVkLymIIYu9WMsJJuGmBAUCuD8Tz1x12uYLWia7adlq0p+jtVWWVraRrAQVIzkyaoH00wImLKlrYL0ULz/ruW5fcFBIzbFcgQvLFC4GHWlt/0awH09QlezladXl27ykGeImWAbWZQ+33sdoFcoNkjZgZOUKjauzlUHAnx20pHJnDQjgrer1W4y+9CbUf0IvNlKfmk4MXuRFTVJBOQjUzco5EgWPS6ziSfZRR1qyAWu6BeImw360IB//2INXatCPxAmaUmlayklr2IPGX/L3Wwh8AhmBLd1RSZaZ3JjQyUNTV6v+x/0Lv6mXqJRA/jgswLhQOn1HKamdzi5SD3kS6PzubMDOFJxC3kxahS43VP2EfwKkOC14Iwn761ku3uO5AxVNNo2L7APcxSV3IKEQFzYjWvBkqGxn/dzcXiRXfpYE48Xkk9w1M9M5OMTrc0dXkjtYSZMHnBYl9JMctg850GeuF4/TuLubdFkwkW5zJyAZNJ53UG//tgRMyauviiiRr8eOwTcTvo3NJIxO1PDwcAx+/0P07tU9Nrxhwwb4etw31jGr1WvWYvCg/li85Bfrva6lS4XHxtVN/fpPoTCt9o5vdMaMGVOwfdtOdOvegxx8Titeg2fqY9SoMahdu2Zsuv7v9uURsFQQZy/gPnDwEAoWLIDadZ7kEc7DnOgh+HXpMvTp0xdPM33ft3vFpr3SmxykXA4Q0APlb1p6xhYczO1oRk7Oudxia9B++CuBPwHAmu2xl8l60cJsU9WJp0nhaOI+T4ojJSKLVxJFnjIsjf9BnHSagB4+YtXLH09/D/A5BymVxKQhrcVe5N5LayfBAZs/ZoDnZJpHyam/Xu5y62YfLW5+aRICKS0YEk1yHVMLNsHzMs/fYygbf2zgEPV5VxL1KkBfwoj6Lot6mb3Di35TvChG0C8cABAmL9UhI6mZDxu44gGkea/rsGVeFCRYTeL2XJPbWIKBcYLdqz3ahfWqwsWPu5keP/Jr/OzrV7gIJFVmSsaEKU/1D+UY20PAz8VFVCL/icD8ShYmf0r/39yZHdiUQOcHSS8aCeGYOc5dnZHjHFNGBHJ6v4jUlRlz5l1iV1nnd3MMzWFfzaGF34KLc3Kyj2PALGgaO/zFBOQjiHq9V16+KcvMM/Oc8Kr2iGJMFTNuzftUbK+bdZCs4mK1jgvC1OX+xY4uRIs6rbLPjQWkcYPp9lCCeefP6Z//m6BZV1eBoZ9+CDloA0XHqIZ8MBATya2LUpHojG0HOkc7tG9vfY353uLFULNWXWSkKVKmzEOYP28+Kld51PoiVa1aNaw0OooV8f0Plhd//vyFaP1/7fDOO325M/B/U2/Ae4MRRlPyu+8mWfH1R0AfKAvmL4DKEuk4ZXIEVq5can26de0SGC32fuCgD7B7957Y56RuKhXgboOOtN20ajUlRvGM/ckTcSkO8j6MFoOAXvz0TJ6VN6LBlZZW2JrD/jA5WQWUogQE9AKQ7QF8vUkX7CpKIYyT4VvmLzDYQQtjJa2RQNHmSNy5QkXPRP5/e9cBHlWxhf/djSAQmgGR3quiECJIJ4SqIE0U9PEAEYRHURAiTUGqgIpU6aAUIdJbFKQpvRfpkCAEBOmhky3vP3f3bm7WlA0JSsyc79vcu/dO/WfmzJn/nAVy4TXJhcclstjkB4uT6Oh9neFlugTRMltK34JQNiLC4beca9MUfD7SDNlpJQ762fldqJ1mM62YxvQiwrlf54YgTjaR6oVM+J1HdPF9iBymBbTugAO1WEdsIjWKg1o4WtnIqhc0Iy3x1cuLLU959nEMLUvBV/KPpXL/ZI1zE/2V5WzlAp7V0oKSpMw+pTNdF+HpT19yblz6sy/ovJSxFhlGLn0cT2HSUqFvcnITukEqQCS+OuObE87cMf9WJPUnzlTBUpylwXQKd6Yj8lGlKmkxodp+dPHo4mfYaqDzinJjP0BczlHhylyawk1QF1H2cnL7mkaLoCCYduEmF0JqLz5pQgpwzm4HLnJe1iqUsNqZSqrkCgMeRNEP28B/BpkbnlBYj1K/5zqLr50StDBHAg9c4yhzWyjKWi6aa/UHFizrYsFS+hLkE8RTQAB9HvPbOk+9EhYt2K52zWeJ4tnqorDiq/fveMflknwiylxi13sF98WePXuwft1P6NvnY4Y+dsfPa0I1Dl+csEG1ajCSB+jQoR2ef6GUxvPv27sf1/nru/S0xFu3acdwzJnuhvXp3ZMROwM0RZ+R5zmJuS/FSJ9+/QcyOseO7ds3453/tEaJEsX546kKWj7ZbCTeX36MFRZ+BoE1quPLL7/W4u5v0wkrEuHhH5Bn4qCdNnUGI4XyolChgvIoXhHO9xi97i2nOBffS1QsZbg4dfmInv2PFzICZrdVi9ioXooK5E/9LaM/aB0PoGW6obQDw+ta0JZW/Ue05vnbFOTlUbJMPMo4uhTnXU/SEIOX2rFwqxV0SaCSoR2SIoB17+HEnbJO/rVB8uM8jr5BTjE+qUu+dQEV3BRaxrpIHjmuNp/MuGk+FLqpfwNGMLiKmk7F2XmRHVVH8R+vYj3luRg6cRGJSOSQYFRvjBW96awV7nbwG2Z8zsiLgcThKfa7bXVznApBkBXF0Zex0ML/k/nTHKmv0HKMS4YR1/8ttaH6aCvnBLSIn68am3GLG1l/nqSCSeOINf8Z8Xt9Irn7knat/tfZ7pV0JlYZacVyLvAMaWj9c6PIk8WsKZ1GxKEHle5CKgdRikXJH7/nim6Kq05pY0JzwrMfEjnUjQq1LqkTGbdcPMWMaxb/uHmWYfwuyvwjjteQFXSC8giWhXOlZlluwi4FJzzzCvo5Go2T/9eVTmyOh8kiI+2UqRzfbhxfmWf8gTsCOM8a8KQXn7xO5/wXq62ow3rEkElIWtEf1WyaVaMx/WhtT+RJV5dHqd9znelleV7fJRUXRkOoDilCocMecI70aeT0l0haOaUYRebNPaYRA02kCDf84NfNGEYnucxnOSk0JP1z1mAAGvP/nfcmKsXoUUxkzfLT6CqVA/Hb4X1azoCAisifPz+aNWuCxo0burn6Nm07aHRNJCNjChUuqIViVqpUnUp7l5ave/deVMjhmDtnlvYrvM2bt6Bnz94IDV2OxUuWYfKkaWjCsMz3uTncZnzj5yO+QMECBbSY/MWLF1AxptHCK5s0eQvfL5iNM2HhGDZ8FCL5Y46uXTtjL/n7EZ8PJdXzutamdPyRlcgFho+Kb8GTxpFNS04OiRGxQO7RMWYMhzPmF+ePHppofC73MgBC4YgFIiJlSTSGOHgSK1KWLFpxwsYl0k5xPurH1fVhdi0M0TN93aL852q52OMSqUuoorjaKX2QE4dej7Ec6aMPIXZ1WXt1k4pb+GhvRayvrOynlCGOsx3cyDwlHymLclTCImIVS706TSOp5XhubJ8obUltVEhGSkrGyfhOypV2pyOe0ldP8azT+D6+OWFMp99L26U8vf3687iu3oyrYChzRcJ0j1+iIUB6TBehitLyq5EK1N/JVd7LidWIn/G98V4wqssNfiYt4JLc8L1pm15HXGsqMfVLWTLeMn4SWSbz1lOM813mrsypItwYjXPUM0983+W0+ahUW3zlPuq7JCn7qKgo/EKePSgoUKtfflQRm3NT9hPjDyZEmco/daBb4UcYOlmkSJEY9ItY5M89l0P7NawvrXlPakb+zZy7rE+iZ3SRH13Jjzjkn0Q9dToMJWnpy6/zZFOSf4Fvy9Zt8C9bxt3GiIgIbfOQE0FqFqGeLpNi8pROFfifNzzChuNZzt/x/TgdvYsPUxt6SKkc0TH7Hq/+9V8TM66xKfvkAmgFI2VmMMIle2ZSQq7NJDFtS6526OX8k3XrbfgnrklS9v9Eg1WdCgGFQPIjIH4Iid9/yRWFkpw1CH99g1Flb5SOpvqSs3xVlncIKGXvHU4qlUJAIaAQSNEIJI6YTtFdVY1XCCgEFAKpFwGl7FPv2KueKwQUAqkIAaXsU9Fgq64qBBQCqRcBpexT79irnisEFAKpCAGl7FPRYKuuKgQUAqkXAaXsU+/Yq54rBBQCqQgBpexT0WCrrioEFAKpFwGl7FPv2KueKwQUAqkIAaXsU9Fgq64qBBQCqRcBpexT79irnisEFAKpCAGl7FPRYKuuKgQUAqkXAaXsU+/Yq54rBBQCqQgBpexT0WCrrioEFAKpFwGl7FPv2KueKwQUAqkIAaXsU9Fgq64qBBQCqRcBpexT79irnisEFAKpCAGl7FPRYKuuKgQUAqkXAaXsU+/Yq54rBBQCqQgBpexT0WCrrioEFAKpF4EkK/u7d+9i8ODhbgQjI2/F+O5+Ybh5+PAhunbrYXgCSL4ePYJjPJMvNqsNu3fv0Z5/OmAQoqKisG//Ady7dw9nz57DhPGT/pJHf9Cv3wDt1m6348KFP2L9XL58RU+urgoBhYBC4F+LQJKV/dx5C3DixEk3QJkyZcSSpcsQHn7G/Uy/EYW7dNkKLF26AmvX/uy853eHw4EJEydhzZqf8W6797XPsWPHtWwWHwv69x+IixcvIXT1T7h27TqCe/WB2WzGjh27sHf/fr34v1wXLV6iPbt27RoqVqyG1q3bxfi0aNEKLVu2+ku+pD6YvseObRGOpBaj8j+hCKjxTf6B+XqrHRvCvVszdx4Cs/bZ0Wu1Lfkb8i8u0Sepfft21mx0794Vbdq0dxfloCXdsWMX5MyZU3tWrFgR9O37Ma5dvYbdu/bAarNqFrrci0Q9jMKPoWsQEjIX585FYNCgociTJ7f27ubNSLRq9Q7205qXfLt27sY777TE/fsPcPjIERzhp917HbW06dOnx7ixX3FDuIbLV67CbrPjODeiDOnTsS3PcYNZraXT/5w+FYb3O3bWvybbdcMJ56StmMeUbGUmZ0FHLzuw8JAdn9S0JEuxo361o2ZhE8rlejL7myydNBTypI+voan/+K23c+PcDQdyZZTmJjyHJu6w41eusbYVE077jwPwBDUgSco+JGQRrly9ggYNXkXePHm1bs1fEIIyZcvgwIGDGDxooPYsU2ZtFPFC6eeRdc1aRFmtMJvMyJo1C7Jnz47Zs+cgT97cmD7jW2za9Aty5cqJmTNno2vXTjh48BA28tlOWvHXr1/H7DnzkClzJhQsWACHDx1G+/btUKJ4cXTq1BXjx3+t1fcTTwhLFi3F3Xt38QmpnG4fdtEonBqBtbX31ijWb7bAbrchY6ZM2rPU9Of8LQd+OcYNqWby9HrzSQcK+yHVKPvkQS11lOLt3PjyVe8Njx1hDrR42YQmpZJMTKSOQXD18pHRirhwAZ98OhA+VJpp06ZF+QoBVOalsGHDRgweMlBT5CVLldCe58+fzw3qt9/NQeFChSD0TL58+ajgZ6FL1854cP8+mjZthDFjvkSb1q2wYsVKLU/VqpXRqGEDVKr0CnLkyAEbrfsXS5dGyZIlsH3HTog1HxDgj/sP7kPSirRs8SZCfpgHX19f7VqieDFtA9m4YS3kUy6gHDeS/2Hz5g2khpZpeYx/Jk2aioiICOOjeO8n77QjaIIVFUZa8dl6G2kpZ3I7r3W+sSL8uvPBH7cdqPq1FWJZi9y4DwSOs+K+1Zne86+877DYhkpfWFGD6UZsYtmuRHL9bJ0NgeOtqDzais5LbZDjrci+Pxx4a44NE2gBSX31Jlu1Y6+8W3yEFv1iO3jI0t4tP2aXx9hzwYE3Z9tQYYQVzWbZsMNAQ3VkG77bb9eevzLKWde5m86WNJphQwTrG7nKjqbMF5/MOWDH69NtKM86msy04dQ1vTdOHKQtgpe0eSD79tDZNNyNArott6Hyl1bUIs7DNjrrETrl49DoOj9ZY8MHTKfLkA02CD0gEl//ZAzmHbRrWEo9nvK4xnc7MX57nhNz6feq464OswHSpn8KDxnvKbvsaDjNhpqcX/GJtPPnMDvqTXHO/3YhNlznvBVJzNzousyG7zkGIvHNt9emcj0Rt7E/2fEa2ycS31rQEqg/GgKPrOx7ftQb77V7NwaMY8ZOQNVqVZEnVy68/HIA9uzei4kTJpODd9IskliU82uv1cPT3CAaNKjvzu/nlw35C+THggUL4e9f1v18Li35qdNnYMSIYdqzWbOmwUaLfP78EBQlPbRqZSjpnKPw83vGncd4IzTQuYjzuBkZiWHDRmifQ4cOcTNZ5f4uzmFdbt26jeGfj8S6dRv1R/FeQ0/YMWODHf1pmYR24UGJM+/4GacSM/OUmSOrCb/+7vz+8ykHHjwA1vIqsvl3O7L4mvB0HOerdvNtsLCMRR0t+KoZyz/owMy9zgUxlIps+2kHJrWwIKSdBfeo6GWRiNzn5RTrvHXfgRUdfdCxmhnjVttxk3U3KmlG/4ZmPJMV+KmzD14rbsYlbkIfcJE2ecmEDT180KysCT0W2HD1rlYcrvM6m0pz4KtmhHSw4OodYPpuZzvmt7Ig93MmdKtrxrz/xG2dXeBpImS3A4NeM2PNBz4o+hzQZ0W0cuPwYNlvDnzL8kY3t2DdIQc2hjvfT9xux5XbwDrmm9fGgv3ngJ3nHSiX24RtLspMWrqZ97uJic0JL7bwxFEmpynB/kndq1j3+LcsGFw3Zh8e1/iKITCB9JeOeZvKZgxYZMdDl279J/GQ8f6emPeqxfFuG8fkdE4NBlYAYzc48GUTCxZ3smjYd3bNQ2/nhhQldd7hpq7fxzXfFrbxcc+3ha2dYxXfWnCWqP4KAo+s7N8nfdK+fVs3iqtX/4gJE77RLHB5WLVKZfT/ZCB+XLMG30wc4053i7NDLOc7d+7im2+muJ/LjZXc/UU6cY1Sp24d/BDyPU6ePIm33mqODBky4MMPusA3oy+mT5tMR3A4o3X2olix4sZsOHTwME8LD1C79qs4euQYsmTJrPkQxI+QLl16ZCGFJPfyMYtWdklGlnvs6EE6cv+jP4r3uuqoAw14pAwsaMIz6YEBQRakzxCdpRq57B0u5f8rFVHrGmZs4VVkGxVyxcLRaY13QrWIBTO6oQU5uSH4kw+fw8ldJb+zresOOxBc24Li2UzIncmEUQ0sOEzlplv39F8juJoFWZ4GGlPBy164/rRd2zzSPkVmlMWk51U2k/U8FufJbkKLF81Ix2ctX2L6LCZsORutjOvxWelnTciXmen8TdjqUrKSXsqSDSuuTUv6lSujCcu5KZXhxpApLdv0ghnnLrm0sqvjHV4xa30NoBKvWNyEtced79Ow7Egqg9/J6z6bwYQQbgjlmUbK4kEPZ3nKOHHVAT/WUYjKXTYC2diuXgcqES9v+tcz0IzniUFmts0oj2t8ZcrNbmlB8+fN2jg0LGGGhbrruOG080/i0STAjGoFTMhmmMtGXIz3HauaNOxyE/8R3MyPcn7LPPR2bhjL0u+9mW9SvkhCa8GZSv2Nf9uOB5/AmtVx48YNLYVw5D0+Cta4cz1LFSr7y1eCGWGzUrPm9efBwT2xY+cuTcH6+fkxsqaH/opW7wP4pHGNoOupcPhjx06kc/eqplWWL3fSO/PmzaITNw9q1Q7C9OkzY5TTk9E6+/bto5HtoA9gLVatCkW5cuXQtu1/tVL3059QpXIlNG/e1F238SZdunTGr/Hen2WzKnJRGCWXX/T3WkVMmLvNDrHkTpAqGU8L6IcdTupm/1lgCBdHbCJUj7gTjAo0D5W6iNAbN1hvMfLkuvhxo3mKikqUnggPUPSL6G+BrFyIt100T/RT593JKw6cPutANdInRvkjMrqAZw2LPgfLehBHWcb8xntp83CeRn6lr+A+LTiyeG66S0+X0+na0b5m5wZ3xtWXtuXMuH7Phtakfp5mH0URdSxvRlrO3pcK8eTEzVQor8pFTcjI9+tP2XHjrgnF85mQhvB60z/BLzZ5XOMrdckpbel+B66Q5uNBl0ELoB8puhX/JB5ZvV8CmsGhtzoHxy1NGmLOsZNT1aOKt/MtobVQNglteNS2P6n5HlnZGzsklMh3s2Zgzrzv3Y8z04nq7++PUV+MxoBP+7mft2jRHN/RIXvnzh3s2bsPo0YOw6ZfNmvv5RpQzt+dVm6aNm2M4rTae3zUCytXLsGJ46fQt19/cvC5tHTN32iKadNmoH79uu58w4YO4oR7CiVKvkgrPh0izl9AkSKFUf/VRgzhvEhF44OtW7Zh4MBBaMb8gz771J03sTc5swARLv5az/snLVA9qqAgaRz6orGCfGzBHE7lU5rW5mrSPzdovce1IIpxw7hFdkkmsygsEeH2o/g9IxeTb2bgzE3Qqne+i6Ql+5Afqe8olXdiJB/zFM0PzHubGvgxyQLysXt+B+bzGC7W4m5a353pV/BGpL8DGDn0aU1ovoT+5HczUDm+x02gKk9O26jshebpS9pBLPPOC0mXRTlQme9EktK/xzW+YVTwk9ba8R1PO3I6E2NA/CXeyD+JR2ztkxNX4WecWMum+5CfApxTf4fI2ohvLfwdbUgpdbjUSNKaO37caM0RayxFYue/+nIEFpBbF0pFRH7c9OGHPfFht27Ili0bXni+FOrWawBfUjOvvFIe69auQ2DNGtoPqerVq6PlkXj6kIWL4OPjQx59Azr9ryuGDBnEk4FZi88f/vkoZKYJPH/+D1p6+SOK3ijr163X6hJTcsniEOzatUX79O0TbEzmvh8x8kuEhYW7v8d3U50KZfkuB2TxioqdRqfhDdIHRnmZacats6MarXyRmrRAJ5Lnf4FKP64lIXRJ9mzAoJ+djkpZRM1mWjHNxZVXKGbCmI123KKFLTzvEDqGCzDUU2ibhCQnLfPr3Ch0R1p1nkzCSBltotIUiYh0Omv1U0JC5fn5AgfppI1PzpCeeJrDkpkWo2xgU8gJeyvikB3H9IKV0Dc5qVhukNYRqV3YjAPhDlwi/i+QZspL3B5YHdhMCkhOVSKJ7V8Iw1LX0+mo5X1M43uG7RX6K3t6ZxvFIWrlZu2N/N14JNSmMRudJyuZh4M5D/Ma5qE3cyOh8hN6n5S1kFDZ/6b3yaLsdUBEmUvseq/gvgiqVU+Lbe/b52OGPnbXFHi/fgM0J2xQrRpalg4d2mEorXCJtLlLDv86aaH0tMRbt2mHJk0a6cWiT++eKFGC4ZVU9EIdScx9FM+8H/fuz+gcO7Zv36z9kGvbth3uPLLZSLy//BgrLPwMAmtU195J3P1vDNmUT4SHf0ASiIN22tQZGtXkLiyem7fJZQe9aELLKTa8QstsJ3n4MuSbjVKDCoMRqqhLJS9SkwqKvw2DbBTxyXRyur+dp/+DETC1GHGTn5xyJ9IXIsPqkI+nhVyL1EtVRqmE/QlMftO74RRu+iW2pd4YK5YwOkdOA582NmPgCmfkT7NvbPQlmEgTxd8+ve0ty5mwib6L+lPitkzffdmMO3QYV2ZfAtmX0omIyW9EXnslI3mqs73V+BEK6D2WJyKnBF9SMKVJ2ehSnv4TsZSLuKzNxPZvIamVFfSJiDyu8a1awIyXuBnV4fhJtNUfPB1mpl/FG/m78UioTUElTajPqJzK7MfxC8DE5tHz0Ju5kVD5Cb1PylpIqOx/03sTlWL8Jlk8vRXFW6VyIH47vE9LFRBQEfnz50ezZk3QuHFDN1ffpm0Hja6JZGRMocIFtX/qoFKl6lTau7R83bv3okIOx9w5s7Rwyc2bt6Bnz94IDV2OxUuWYfKkaWjCsMz3uTncvn0Hn4/4AgULFNBi8hcvXkBLPg2uXLnCDeItfL9gNs6EhWPY8FGIvHmTIZadsZf8/YjPh5LqeV1rUzr+yErkAsNHxbfgSePIpiUnh8SI0Cv3yLmK8zExcuAiTwUGp5yetywt2AK0UkXE2SVOyqdiaZLUayUbojur9PzeXCWvD8t01uLMISeIzDwdGJ95U5akEYt98xlG/bAMT6lb1OmIlPIzpIm9L555PL+L0zUdFb1g8ajiTf9kozD6O6SuxzW+ElYqIs7yxMrfgYdEUe0491cVkY8OfPkRXbmhNBi6MCKL/iTxCXk6uPU+ydw4+mfCc11P/yjXpKyFR6kvpeVJkrIX6/oX8uxBQYFav+Xfq4nNuSn7iUnOrC4RZSr/1EHFihW0J0cYOlmkSJEY9ItY5M89l0P7Nayvb8YY7yST/Js5d1mfRM/oIj+6ypo1KzeE2zh1OgwleRqQ3wDIppQlSxZs2boN/vzBl95GiaWXzUNODf+UrGGEzB5SKJ5SnyGREm2S0kRorMsM5fSUThWckUGez//t31P6+B6n/2fxYWpqDylF/1MjRhDpyl5ox4QkpWORUP+e9PdJUvZPeudU+xQCCoHHi4Ao8Gr5zTGixh5vjar0R0VAKftHRU7lUwgoBBQCKQiBWFjgFNR61VSFgEJAIaAQ8AoBpey9gkklUggoBBQCKRsBpexT9vip1isEFAIKAa8QUMreK5hUIoWAQkAhkLIRUMo+ZY+far1CQCGgEPAKAaXsvYJJJVIIKAQUAikbAaXsU/b4qdYrBBQCCgGvEFDK3iuYVCKFgEJAIZCyEVDKPmWPn2q9QkAhoBDwCgGl7L2CSSVSCCgEFAIpGwGl7FP2+KnWKwQUAgoBrxBQyt4rmFQihYBCQCGQshFQyj5lj59qvUJAIaAQ8AoBpey9gkklUggoBBQCKRsBpexT9vip1isEFAIKAa8QUMreK5hUIoWAQkAhkLIRUMo+ZY+far1CQCGgEPAKAaXsvYJJJVIIKAQUAikbAaXsU/b4qdYrBBQCCgGvEEiysr979y4GDx7uriwy8laM7+4XhpuHDx+ia7cehieA5OvRIzjGM/lis9qwe/ce7fmnAwYhKioK+/YfwL1793D27DlMGD/pL3n0B/36DdBu7XY7Llz4I9bP5ctX9OTqqhBQCCgE/rUIJFnZz523ACdOnHQDlClTRixZugzh4Wfcz/QbUbhLl63A0qUrsHbtz857fnc4HJgwcRLWrPkZ77Z7X/scO3Zcy2bxsaB//4G4ePESQlf/hGvXriO4Vx+YzWbs2LELe/fv14v/y3XR4iXas2vXrqFixWpo3bpdjE+LFq3QsmWrv+RL6oPpe+zYFuFIajEqvwcCp6458PGPNti9gHbwehvO3/IioUcdsX0dsNaGK3die/P3Pgs9Ycc3O+xeVZqc/feqwjgSJWbMpIiISAe+3GLHRC/7GUe16nEsCPjE8ixRj76dNRvdu3dFmzbt3fkctKQ7duyCnDlzas+KFSuCvn0/xrWr17B71x5YbVbNQpd7kaiHUfgxdA1CQubi3LkIDBo0FHny5Nbe3bwZiVat3sF+WvOSb9fO3XjnnZa4f/8BDh85giP8tHuvo5Y2ffr0GDf2K24I13D5ylXYbXYc50aUIX06tuU5bjCrtXT6n9OnwvB+x87612S7bjjhVDIV85iSrczkLOjoZQcWHrLjk5qWZCl21K921CxsQrlcydtfz3ZG3qcyuAZYCW+aBKoK3etAw1JA7oxJ7+LqPQ78x9+BbBkSqDTpVcUoYelRO+5GAW+/6LTJLnHDOX/Tuw0sOfsfo1GuL7Lhdltuw/D6FmRME1sK57PEjJnk+Gi5Hdl8gXfKJdkOjbtRqfRNkpR9SMgiXLl6BQ0avIq8efJqEM5fEIIyZcvgwIGDGDxooPYsU2bninuh9PPIumYtoqxWmE1mZM2aBdmzZ8fs2XOQJ29uTJ/xLTZt+gW5cuXEzJmz0bVrJxw8eAgb+Wwnrfjr169j9px5yJQ5EwoWLIDDhw6jfft2KFG8ODp16orx47/W6vuJJ4Qli5bi7r27+IRUTrcPu2gUTo3A2tp7axTrN1tgt9uQMVMm7Vlq+iMW7y/HuFprJk+vN590oLAfkl3Ze7bTn5vJ3LeTZ4NKnp4/3lIO/uGAKMu3X3TW06bsk6MAZcvZst+Bh7Kk4lH2iRkz2UBOnnHgqw8s3KT/3o318Y7kk1H6Iyv7iAsX8MmnA/GUxQdp06ZF+QoBEP5+Q8eNWLFqKVr/912ULFUCGTP6avy63t1vv5uDT/r3hdAz+fLlw/gJ36Bfv96YMnkqmjZtpH0ukbKZNGmqpuyrVq2MmzduwsdiIXe/FzZa9y+WLo2SJUtg+46daNa8KQIC/HH/wX1IWpGWLd7UPiVKvoiQH+bhypUr2gayccNa7f0HH/ZElcqV0Jx5YxOpu0GD+jxd5Int9V+eTd5pR8guO27T8no1wERayplEJm+9SVZMbmFBwawm/HHbgTen2TDlHQtKZjfhBhdyk6lWhHbywdOxjIS8D15tw29hDqRJC9R/0YTg6hbIMpAqBq2zYeNRLjhaf2UKmjDyVQsycOHto5L4fJ0d1YqaMH+bHRnSAS3KmyHKYvERO0attoNwoerXVvSqZ8brJczYc8GBEczzO695crCeWmZUcJ1MOi62oVIhE5ZxcZ/nqaAcy+0daEbezCY0mmFDBOsbucqBOTsdWNwmbmU85wBx2u3AxSsO5H7WhFGNzCjyjHNRB46zon11M6b+YkfpfCbUKML3Hu0syLS9afmtes9ZR3z4GAdJx2rDEQc3eKBaSRMG13HiaEwn91F835tU0XbiyqmND2tHK1ih5078SZxozYp8ssamKeMxrzu/D9lgg29aEz6sFJ1HS8g/0oaBpIN+Pe7gegBe5EnoqwYxx8uf9tLSXQ50ZZ2HLzmwdp9Dm0tVT1ixkH1eybzHWf9IV/0yzjJm4ecdoN2EzsSvIcfSU67LPFplw+FwB8iy4u0KZvy3zF/TGfNN4py+zPkqJ4v1HPcstIn+y36985JZo8daTLdpyRtNtiLoBRM+qx37uB9ie41jJuPcnf0bv8GOew+AoNIm9A204NwNB9p8Z4ODxb7FNVKpBOcz+7lX5uV6O86wjzm4ZtpV4pyLpY/Gtqv72BGIf8Rjz6M97flRb7zX7t0YKcaMnYCq1aoiT65cePnlAOyhcp44YTI5eCfNIomFannttXp4mhuEKFRd/PyyIX+B/FiwYCH8/cvqjzGXlvzU6TMwYsQw7dmsWdNgo0U+f34IipIeWrUylHTOUfj5PePOY7wRGuhcxHncjIzEsGEjtM+hQ4ewYsUq93dxDuty69ZtDP98JNat26g/ivcqPOoMTtz+VLShXagduKqP0zoRMVOP5aCS//V35/efTznwgBN8La8im3+3I4uvKVZFL+/bzbfBwjIWdbTgq2Ys/6ADM/c6OduhVCzbTzswiRtJSDsL7j0ERCmL3OflFOu8dd+BFR190LGaGeOoOG+y7kYlzejf0IxnsgI/dfbBa8XNuMRF/UGIDU1eMmFDDx80K2tCjwU2XL2rFYfrvM7easfAV80I6WDBVW5q03c72zG/Fa2w50zoVteMef+JfcFLKRd4mhBFP+g1M9Z84IOizwF9VjjLkPccHqz6zYHxb1kwuK4l1nbyQIYbBhojPnykTF2Gb7Th4DlgLjei79+14LfzwIhNTqz0NPp1CDfQw+ccmNHagjlMv+SAA1YqPJFyuU3Y5qLo5Ptm3u/mGNicw4ktPOGUyencvOS9UX46RaV81dmGH9634OINYNy26PESi/YOx/D79hY0KWXGAFJs9fxNqPy8SRunZzlPbnP8brjGRMas81wbqnLj/Yl4dqKiH7iIm9FVV2MMlb/HefQslXxoVx8MbWjBZG4Qm1xz1JAsxu0t1rWCm/eztLCl/G41zfg61OmLysVnq2igiAie/ais4xLPMZNxXsZx/pbzZnRzC9YdcmBjuB2FuJEbyxzCzeMi+9hlng01iznb0LGKCcOW2bGTil9J4hF4ZGX/PumT9u3bumtcvfpHTKCVXqnSK9qzqlUqo/8nA/HjmjX4ZuIYd7pbHG2xnO/cuYtvvpnifi43VpqoF+nENUqdunXwQ8j3OHnyJN56qzkyZMiADz/oAl+eGKZPm0xHcLhm8RcrVtyYDYcOHqb1+gC1a7+Ko0eOIUuWzJoPQfwI6dKlRxaaQnIvH7NoZZfISeTY0YN05P5HfxTvdRUtwAYvmxBIy/qZ9MCAIAvSZ4jOUo0W3A7XwvqViqF1DTO28CqyjQq5YuHotMY7oTDC6eQdzcWZkwtdjsNzqICq5He2dd1hB4K5IIpnMyF3JlrBtBIPU9mIwhCh/xrB1SzI8jTQmApe9sL1p+3a5pH2KcDEYtLzKpvJep4c8tBqakFuOB2ftaT15pfFhC1no5VxPT4rTWs8H635FlRCW11KT9JLWXIyie104mwNIApiOTelMtwYMvGU0vgFM87RejVKT54Wnmc7MvO9tMuznca0CeFjTLuWykVOKtIG+fyvmgkbhcaKReSkFEzLU3CVvg7mBgcXDNJ2HixxlhuOKFU/llWIyl2Uj2ykV68DlVzj41l0vSJmfMeNWcYyBz/Viptw7GJ0qqeI48BaFhRgnYJpGuLJw6/2kXEiHDFkHccsOxVkZ1rpMsZi7X7LjUKwNYpssucuOjCAZcs7mUe1y5gQeix6bI3pjffZSc11pzUv5YtRULW0CTPSCj8AAAqDSURBVKt5MpS2yAlSJP1TJq2tzm/e/e3wilnDIYCbZ0XisJYnltjK3MA+5vAz4X2eSqUNrxZztmEl26Ak8Qg4t+fE50Ngzeq4cYPmCUU48h4fBWvcuV5UFSr7y1eCGWGzUrPm9efBwT2xY+cuTcH6+fkxsqaH/opW7wP4pOHMNohw+GPHTqRzl2YRtcry5Su1t/PmzdJollq1gzB9+swY5fRktM6+ffvAQzB9AGuxalUoypUrh7Zt/6vl3U9/Qnw0Trp05D28lLNsVsUCMZdiLk5QXWqRjphLKsVO3XKCR9LxTSz4YYcV96k09p8FhtDSjU3EOSnuBKMCzUOlLvKQc/0G6y3GxaiLHzeap7iYdcuOByjtZKG/z0rFdNu1EejP9OtJ0iqnzzpQjbSOUf6IjO7Hs4YNLAfLehBHWcb8xntp83CeRn6lkr1PS1kUmU536emkD95KfPgYy9Cx6vGDLQYeUr+nSNpIKuxiVPS6iPI1G1bJS6SzfuXmLRRSZVrVGYn5elrtN+6aUJz0U5rYhxNnuEF8tcmOfVRgIjycojCVnS5PU5kZbA79cZzXUxyzfIbxl4QvcDP2lCOcR3SRIWhszLF9nm1NSPIa5rGkLcjvO0kFJVVy8pShS3ZufGdiOY3Ie5mXeT36KG3Y7sJQL0NdvUPAMI29yxBbKqFEvps1A3Pmfe9+nZlOVH9/f4z6YjQGfNrP/bxFi+b4jg7ZO3fuYM/efRg1chg2/bJZey/XgHL+7rRy07RpYxSn1d7jo15YuXIJThw/hb79+pODz6Wla/5GU0ybNgP169d15xs2dBDScNMQzl4Ud8T5CyhSpDDqv9qIIZwXqWh8sHXLNgwcOAjNmH/QZ5+68yb2Jie50ggDtSD5/yT/qNtiwtWbqABWHLejILlwUQalaf2tPkEFQasrrmN/MU7qW7ecil1XILJBCKcs0Q++mUEFwmgTbggikbQsH/Ij9R3lIkmM5GOeovmBeY/R+bngoB17fgfmt/FhVAuwm9Zw5zmxUynetD0hfPQyBDvBSigDsSTjE0mbgXj+TlzzuHAVKsFu0JNVeVLbRmV/5TbQl6cFOYV0Xkh6LsqBynwXl4wi1efLtGtInYnlPpq02D5usI8q4r84SLrJKLe4AUsf0hpWdSGOrQ+/byQVI6elxMhF4mCU85zXubMan/x1w475Nmnf8rPtv3lQNhe41jzbkLRaUk9uTo2ky/hxozUHrbEkiZ3/6ssRWEBuXSgVEflx04d0jn7YrRuyZcuGF54vhbr1GsCX1Mwrr5THurXreGKoof2Qql69OloeiacPWbiIE9aHPPoGdPpfVwwZMognA7MWnz/881HITBN4/vwftPTyRxS9UdavW6/VJabkksUh2LVri/bp2yfYmMx9P2LklwgLC3d/j++mOhf4cjrVwq7LOQKYRifeDVqHRnmZacaRJ61GK1+kJi3CiVz8L1Dpx7X+hELIno1O2J9tTkuelmSzmVZMc3HlFchjjtlohyzwh1RGQ9bbUIAOVTnuJiQ5aZlf50IWx51IdZ5MwkgZ6TyuxDq/OdvmPiU4U8X914+hchI5Ep+cYYz80xyWzDw0iQU9ZTv/JCCe7TQmTwgfY9ryxHsMHb8PiJO0cixPWuJc1eULho7K+In4c6x0XGVzHcJxg2GV1C5sxoFwBy4xvVjS4qR+wFjQzaQi5BQXl5znnJC+i6KXDWT1/oT7Lzz96UtOvDzLrUHaUOgZCc8UkZNO0GgrDnlQY6Ls5YT4NTcX6aFg0GWZDSEMvU1IfuecWHTYmU4crRvoM5K5KyIbx9PctPdeTLichOqJ6311nqIkYED8YiKH2cd1B4gz576SxCNgmMaJz+yZQ5S5xK73Cu6LoFr1tNj2vn0+Zuhjd02B9+s3QHPCBtWqoWXt0KEdhtIKF57/Ljn866SF0tMSb92mHZo0aeQuvk/vnihRguGVVPRCHUnMfVRUFD7u3Z/ROXZs375Z+yHXtm073Hlks5F4f/kxVlj4GQTWqK69k7j73xiyKZ8ID/+AJBAH7bSpMzSqyV1YPDdvk8sOYpRMyyk2vDLCip3k4cuQhzRKDSoQRqiirmuh1KTC4G/DIBtFfDK9pdOZWHWUFbW4kPOTz+5E/lJkGKNJsnCx1SL1UvVLK8L+BCa/6d1wCi/+EttSb4wVS8h/ymng08Z08K1gFMQXVjT7xkZfgok0Ufzt09vespwJm8h1159CTRKHvPuyGXfoMK7MvgSyL6XJHScknu30TB8fPsa0w+jwlf2/OuuVMfqZbW0d4MRKNssfqPx3UrGJDK9n0SimQGJa/SsrilOhCyWmi5xKfPldIoZ0KU/FKzSdHlmkPzdeP6I/YuVu+miI79uzbKjCaJOE5HVGDUVxT6oy0qptEMb0sskMbU7H+3o7KrBPbRgV1YqO+NhOL1M5j8QXUYnYV2H9XDJo4EVEiz/rD2FEUHmW355tfrOyGXU4d3V5k3z+gCV29PkpeuPU3yXHVSi0wW+YMWqNs4/v8yTYlo7oWoWi25Ac9aSWMkxUis5Z/gg9FsVbpXIgfju8T8sdEFAR+fPnR7NmTdC4cUM3V9+mbQeNrolkZEyhwgW1UMxKlapTae/S8nXv3osKOZyRN7Pg6+uLzZu3oGfP3ggNXY7FS5Zh8qRpaMKwzPe5OdxmfOPnI75AwQIFtJj8xYsX0JJPo4VXNmnyFr5fMBtnwsIxbPgoRN68yfDNzthL/n7E50NJ9byutSkdf2QlcoHho+Jb8KRxZNOSk0NiROiVe+SiPR1kCZVxgNZZGK1eTylLykEmu4g4XcVh91QsTZJ6rVxrYjEmViSvD8t01uLMLVx0Zp4OjM+8LVcs9s1nGPXjOjEY89UtatYcwlK+OPdi64sxvfE+tnYa38eHjzGdnICkLN25qL8TRe3Jl0uZ0kbB3VuR/q+KxfGZjv0VB62IRDglxjcheaRcncqT754imHpzohOqT+aJjv36sLjHagJPXsKlT2hs0fwTMq89MZJ2yMyV04JufRvbZuy38fmj3IsDXCgzJY+OQJKUvVjXv5BnDwoK1Fog/15NbM5N2U9Mpmj1IcpU/qmDihUraPmOMHSySJEiMegXscifey6H9mtYX9+MMd5JJvk3c+6yPome0UV+dJU1a1ZuCLdx6nQYSvI0IL8BkE0pS5Ys2LJ1G/zLlnG3MSIiQts85NTwT8ma0+SyXValsQ31Gf0g0R8pTYTGkvhsT+lUwRkZ5Pn83/RdaJ/RW/5q5WZk7H0XRqA8aRLfWE3l70Z0ZZ9Qu1NavxPqz7/1fZKU/b8VFNUvhUBqR+A0T5tyunkxBRocqX3s4uq/UvZxIaOeKwQUAgqBfxECT97Z8l8EruqKQkAhoBB4UhBQyv5JGQnVDoWAQkAh8BgRUMr+MYKrilYIKAQUAk8KAkrZPykjodqhEFAIKAQeIwJK2T9GcFXRCgGFgELgSUFAKfsnZSRUOxQCCgGFwGNEQCn7xwiuKlohoBBQCDwpCChl/6SMhGqHQkAhoBB4jAgoZf8YwVVFKwQUAgqBJwUBpeyflJFQ7VAIKAQUAo8RAaXsHyO4qmiFgEJAIfCkIPB/ZCf7yHeN5KYAAAAASUVORK5CYII=;" parent="1" vertex="1">
          <mxGeometry x="8.740000000000002" y="40" width="351.26" height="190" as="geometry" />
        </mxCell>
        <mxCell id="50bPCj3TIs-8iO-mDuQu-35" style="edgeStyle=orthogonalEdgeStyle;rounded=0;orthogonalLoop=1;jettySize=auto;html=1;entryX=1.006;entryY=0.868;entryDx=0;entryDy=0;entryPerimeter=0;fontSize=12;" parent="1" source="50bPCj3TIs-8iO-mDuQu-30" target="50bPCj3TIs-8iO-mDuQu-29" edge="1">
          <mxGeometry relative="1" as="geometry" />
        </mxCell>
        <mxCell id="50bPCj3TIs-8iO-mDuQu-30" value="dw_content_article.dw_article_pt_info" style="text;html=1;align=center;verticalAlign=middle;resizable=0;points=[];autosize=1;strokeColor=none;fillColor=none;fontSize=12;" parent="1" vertex="1">
          <mxGeometry x="414" y="190" width="220" height="30" as="geometry" />
        </mxCell>
        <mxCell id="50bPCj3TIs-8iO-mDuQu-32" style="edgeStyle=orthogonalEdgeStyle;rounded=0;orthogonalLoop=1;jettySize=auto;html=1;fontSize=12;" parent="1" source="50bPCj3TIs-8iO-mDuQu-31" target="50bPCj3TIs-8iO-mDuQu-30" edge="1">
          <mxGeometry relative="1" as="geometry" />
        </mxCell>
        <mxCell id="50bPCj3TIs-8iO-mDuQu-31" value="一堆表......" style="text;html=1;align=center;verticalAlign=middle;resizable=0;points=[];autosize=1;strokeColor=none;fillColor=none;fontSize=12;" parent="1" vertex="1">
          <mxGeometry x="710" y="190" width="80" height="30" as="geometry" />
        </mxCell>
        <mxCell id="50bPCj3TIs-8iO-mDuQu-40" value="&lt;b&gt;&lt;u&gt;train_data&lt;/u&gt;&lt;/b&gt;" style="edgeStyle=orthogonalEdgeStyle;rounded=0;orthogonalLoop=1;jettySize=auto;html=1;fontSize=12;" parent="1" source="50bPCj3TIs-8iO-mDuQu-38" target="50bPCj3TIs-8iO-mDuQu-39" edge="1">
          <mxGeometry relative="1" as="geometry" />
        </mxCell>
        <mxCell id="50bPCj3TIs-8iO-mDuQu-38" value="hdfs:///user/ca_alg/data/zrec/models/zplus_search_similar_prerank_new/sign_features" style="text;html=1;align=center;verticalAlign=middle;resizable=0;points=[];autosize=1;strokeColor=none;fillColor=none;fontSize=12;" parent="1" vertex="1">
          <mxGeometry x="100" y="660" width="480" height="30" as="geometry" />
        </mxCell>
        <mxCell id="50bPCj3TIs-8iO-mDuQu-41" style="edgeStyle=orthogonalEdgeStyle;rounded=0;orthogonalLoop=1;jettySize=auto;html=1;fontSize=12;" parent="1" source="50bPCj3TIs-8iO-mDuQu-39" edge="1">
          <mxGeometry relative="1" as="geometry">
            <mxPoint x="340" y="860" as="targetPoint" />
          </mxGeometry>
        </mxCell>
        <mxCell id="50bPCj3TIs-8iO-mDuQu-39" value="hdfs:///user/ca_alg/data/zrec/models/zplus_search_similar_prerank_new/nn/v2/features/train_data" style="text;html=1;align=center;verticalAlign=middle;resizable=0;points=[];autosize=1;strokeColor=none;fillColor=none;fontSize=12;" parent="1" vertex="1">
          <mxGeometry x="70" y="770" width="540" height="30" as="geometry" />
        </mxCell>
        <mxCell id="50bPCj3TIs-8iO-mDuQu-42" value="&lt;b&gt;zplus_search_similar_recall_model (知+搜索 --相似度召回模型)&lt;/b&gt;" style="rounded=1;whiteSpace=wrap;html=1;fontSize=12;" parent="1" vertex="1">
          <mxGeometry x="210" y="850" width="260" height="60" as="geometry" />
        </mxCell>
        <mxCell id="50bPCj3TIs-8iO-mDuQu-43" value="&lt;span style=&quot;&quot;&gt;zhihu_adctr.search_zplus_emb_pre_daily_v2&lt;/span&gt;" style="rounded=1;whiteSpace=wrap;html=1;fontSize=12;dashed=1;" parent="1" vertex="1">
          <mxGeometry x="530" y="545" width="290" height="60" as="geometry" />
        </mxCell>
      </root>
    </mxGraphModel>
  </diagram>
</mxfile>
